<svg xmlns="http://www.w3.org/2000/svg" width="1254" height="836" viewBox="0 0 1254 836">
<g>
<path d="M 0.00 0.00 L 1254.00 0.00 L 1254.00 836.00 L 0.00 836.00 ZM 596.50 602.44 C608.60,604.08 641.88,604.39 652.68,602.97 C664.38,601.43 686.00,596.80 686.00,595.84 C686.00,595.38 687.08,595.00 688.40,595.00 C695.76,595.00 727.13,581.39 743.54,571.08 C814.92,526.24 852.67,446.41 840.52,366.00 C838.68,353.83 836.79,345.88 835.72,345.87 C834.84,345.86 823.63,348.25 823.22,348.54 C823.06,348.64 823.89,354.08 825.06,360.62 C828.33,378.85 828.28,407.68 824.97,425.17 C824.44,427.98 824.00,431.61 824.00,433.23 C824.00,437.80 814.04,452.18 803.28,463.15 L 793.82 472.80 L 795.53 475.40 C796.46,476.83 797.46,478.00 797.74,478.00 C798.02,478.00 802.01,474.32 806.62,469.82 C811.23,465.33 815.00,461.93 815.00,462.27 C815.00,464.00 807.32,480.01 802.47,488.43 C791.72,507.04 781.24,520.62 766.85,534.57 C739.88,560.71 711.89,576.72 677.50,585.66 C676.40,585.95 679.55,583.83 684.50,580.96 C702.04,570.79 712.88,562.12 729.00,545.39 C739.26,534.74 752.00,518.92 752.00,516.83 C752.00,516.16 750.62,516.02 748.25,516.44 C745.60,516.91 743.62,518.18 741.50,520.79 C716.33,551.68 697.53,567.59 671.63,579.89 C659.99,585.42 647.88,589.53 639.23,590.86 L 633.50 591.75 L 637.00 589.13 C644.16,583.77 659.68,567.11 665.13,558.94 C670.66,550.65 680.00,534.41 680.00,533.08 C680.00,532.71 684.61,531.36 690.25,530.09 C718.13,523.81 743.17,514.26 762.42,502.54 C767.88,499.22 768.78,498.98 773.92,499.52 C778.20,499.97 780.31,499.69 782.98,498.30 C790.97,494.16 793.47,483.89 788.53,475.47 C783.26,466.47 771.70,465.55 763.98,473.52 C761.04,476.56 760.52,477.81 760.35,482.39 C760.24,485.34 760.75,488.90 761.50,490.34 C762.75,492.76 762.66,493.12 760.32,494.97 C755.30,498.91 732.27,509.90 720.49,513.96 C707.31,518.51 686.90,524.05 685.81,523.38 C685.43,523.14 685.85,520.95 686.76,518.51 C687.66,516.07 688.20,513.86 687.95,513.61 C687.69,513.36 686.19,513.01 684.61,512.83 C681.93,512.52 681.54,512.95 678.95,519.00 L 676.18 525.50 L 665.34 527.25 C650.31,529.69 617.76,530.58 599.86,529.06 C580.71,527.43 554.82,523.32 553.82,521.75 C553.38,521.06 551.82,517.46 550.35,513.75 C547.80,507.30 547.54,507.00 544.34,507.00 C540.39,507.00 540.20,507.98 542.96,514.42 C544.71,518.49 544.75,519.00 543.32,519.00 C538.25,519.00 507.65,506.69 495.33,499.70 L 489.16 496.20 L 486.93 498.57 C483.90,501.79 484.66,502.51 498.76,509.77 C510.85,515.99 530.68,523.64 542.29,526.56 L 548.89 528.22 L 553.12 536.35 C561.91,553.24 571.66,566.80 582.90,577.77 L 590.35 585.03 L 582.93 581.97 C555.00,570.46 529.54,551.41 505.91,524.37 C498.77,516.19 496.43,514.14 493.78,513.74 C489.74,513.12 489.54,513.28 491.02,516.04 C498.47,529.96 528.07,558.35 549.82,572.45 C560.02,579.05 579.12,589.00 581.60,589.00 C582.31,589.00 583.14,589.42 583.46,589.93 C584.32,591.33 564.18,585.65 550.00,580.51 C547.53,579.61 540.10,576.24 533.50,573.02 C498.78,556.07 472.68,533.25 450.75,500.63 C444.72,491.66 431.30,465.37 432.26,464.41 C432.54,464.13 435.14,466.62 438.04,469.95 C440.93,473.28 443.59,476.00 443.95,476.00 C444.31,476.00 445.13,474.52 445.79,472.70 C446.95,469.50 446.84,469.25 441.92,464.01 C435.34,457.00 430.95,450.31 426.11,439.92 C421.39,429.79 420.12,422.66 419.31,401.75 L 418.70 386.00 L 441.00 386.00 L 441.00 392.28 C441.00,403.61 444.31,424.83 448.37,439.50 C449.89,445.02 454.77,459.11 455.37,459.70 C455.57,459.91 456.96,459.52 458.45,458.84 C459.29,458.46 459.91,458.22 460.28,457.78 C461.23,456.62 460.43,454.01 457.19,443.51 C457.02,442.96 456.85,442.39 456.67,441.80 C452.50,428.25 449.15,409.90 448.30,395.87 L 447.70 386.06 L 460.60 385.78 L 473.50 385.50 L 473.50 379.50 L 460.60 379.22 L 447.71 378.94 L 448.37 370.38 C449.71,352.92 454.22,331.17 459.92,314.69 L 461.93 308.89 L 459.72 309.58 C453.66,311.46 453.44,311.72 450.73,320.15 C445.46,336.47 441.00,361.20 441.00,374.05 L 441.00 379.00 L 420.00 379.00 L 420.00 375.11 C420.00,364.91 426.28,341.08 433.69,323.18 C436.72,315.86 439.04,309.76 438.85,309.63 C436.29,307.91 432.94,306.00 432.48,306.00 C432.15,306.00 430.41,309.26 428.60,313.25 C403.90,367.82 404.59,428.53 430.51,482.72 C461.37,547.22 524.39,592.68 596.50,602.44 ZM 438.54 300.73 C445.27,304.53 456.66,303.33 462.32,298.21 C465.23,295.58 468.23,289.00 467.73,286.36 C467.48,285.06 467.66,284.00 468.14,284.00 C468.61,284.00 469.00,283.34 469.00,282.54 C469.00,281.73 469.86,280.61 470.90,280.05 C474.76,277.99 492.83,271.79 503.50,268.87 C516.35,265.35 549.00,258.55 549.00,259.39 C549.00,259.57 547.59,262.82 545.87,266.61 C542.42,274.19 538.81,284.14 539.32,284.65 C539.50,284.83 541.00,285.25 542.65,285.58 C545.50,286.15 545.76,285.93 547.48,281.34 C548.48,278.68 551.29,272.18 553.73,266.89 L 558.16 257.28 L 569.33 256.09 C584.66,254.46 624.42,253.57 642.07,254.46 L 656.64 255.19 L 657.86 259.77 C659.49,265.87 665.95,272.37 672.02,274.01 C682.24,276.76 692.28,272.63 697.00,263.73 C697.92,261.99 698.29,260.84 699.07,260.18 C700.46,258.98 703.17,259.31 712.76,260.48 C714.32,260.66 716.06,260.88 718.00,261.11 C723.22,261.73 735.43,262.30 745.13,262.37 L 762.75 262.50 L 764.63 265.94 C767.33,270.89 774.11,274.21 780.25,273.58 L 785.01 273.09 L 789.12 278.55 C791.39,281.55 793.48,284.00 793.77,284.00 C794.78,284.00 803.00,278.49 803.00,277.82 C803.00,277.44 800.53,273.84 797.50,269.82 C794.47,265.80 792.00,262.23 792.00,261.88 C792.00,261.54 794.81,260.97 798.25,260.61 C801.69,260.25 809.36,259.23 815.31,258.35 C823.98,257.06 826.00,256.46 825.55,255.28 C825.24,254.47 824.71,252.70 824.37,251.33 C823.88,249.40 823.27,248.97 821.60,249.38 C816.97,250.55 800.22,252.94 795.28,253.14 C790.72,253.33 789.73,253.00 787.50,250.60 C785.11,248.01 784.50,247.86 777.97,248.17 C774.13,248.35 771.00,248.32 771.00,248.11 C771.00,247.90 771.79,247.11 772.75,246.36 C774.35,245.11 774.01,244.56 768.63,239.75 C760.13,232.15 747.04,222.95 735.00,216.10 C722.99,209.27 703.41,200.63 701.97,201.52 C701.44,201.85 701.00,201.71 701.00,201.21 C701.00,200.02 686.93,195.55 674.91,192.92 C622.33,181.39 565.39,189.90 518.29,216.34 C512.78,219.43 507.23,222.80 505.96,223.83 L 503.65 225.70 L 505.93 228.90 C508.10,231.95 508.31,232.03 510.57,230.55 C514.16,228.20 514.87,228.77 511.64,231.41 C509.21,233.40 508.89,234.21 509.47,236.87 C509.85,238.59 510.40,240.00 510.69,240.00 C510.99,240.00 513.76,237.81 516.86,235.13 C535.32,219.19 565.71,204.16 589.08,199.42 C598.19,197.58 600.92,197.94 596.23,200.37 C586.64,205.35 565.96,229.36 555.43,247.75 C554.41,249.54 553.25,251.00 552.85,251.00 C550.07,251.00 522.06,256.73 511.00,259.56 C486.18,265.91 480.69,267.68 467.44,273.60 C466.85,273.86 465.76,272.92 465.00,271.51 C464.25,270.10 461.61,267.61 459.14,265.97 C453.64,262.32 446.05,261.90 440.21,264.91 C435.74,267.22 429.75,273.25 429.47,275.72 C429.37,276.70 428.93,278.31 428.51,279.30 C425.95,285.33 431.22,296.58 438.54,300.73 ZM 687.00 502.33 C697.92,504.05 711.02,501.69 723.00,495.85 C737.27,488.89 748.39,475.87 753.62,460.00 C755.24,455.08 755.49,449.21 755.97,404.67 L 756.50 354.85 L 769.71 351.46 C783.14,348.02 796.00,343.21 806.10,337.86 L 811.69 334.89 L 815.10 336.87 C825.88,343.15 837.53,338.49 840.14,326.85 C841.45,321.05 839.73,315.89 835.10,311.71 C829.00,306.20 821.55,305.68 814.12,310.24 C809.70,312.96 806.56,319.86 807.39,325.03 L 807.99 328.79 L 798.74 332.80 C781.50,340.30 764.64,343.82 741.81,344.70 L 726.11 345.30 L 725.50 448.50 L 722.70 454.49 C718.33,463.84 713.47,468.04 703.11,471.47 C693.64,474.60 680.77,471.80 669.59,464.17 C666.63,462.15 647.24,444.16 626.50,424.18 C605.77,404.21 588.59,388.08 588.33,388.34 C588.06,388.60 588.18,397.87 588.57,408.94 L 589.29 429.07 L 616.65 455.68 C631.70,470.31 646.60,484.29 649.76,486.75 C659.94,494.67 672.99,500.13 687.00,502.33 ZM 677.50 447.08 C679.15,448.64 680.84,449.93 681.25,449.96 C681.66,449.98 682.00,441.32 682.00,430.71 L 682.00 411.43 L 656.82 386.96 C642.98,373.51 619.69,350.83 605.07,336.57 C576.35,308.54 568.65,302.55 556.50,298.77 C547.72,296.04 534.13,295.84 525.83,298.32 C510.44,302.91 500.16,312.33 494.70,326.85 C492.64,332.33 492.56,334.25 492.23,390.25 L 491.88 448.00 L 523.00 448.00 L 523.00 338.47 L 527.47 333.36 C532.46,327.65 537.65,325.61 544.56,326.66 C552.50,327.87 552.43,327.80 597.50,370.96 C624.23,396.55 655.60,426.40 677.50,447.08 ZM 665.68 384.18 C673.82,392.33 680.82,399.00 681.24,399.00 C681.66,399.00 682.00,383.02 682.00,363.50 L 682.00 328.00 L 720.39 328.00 C758.42,328.00 758.86,327.98 767.45,325.49 C784.73,320.48 794.37,313.54 819.42,288.06 L 837.34 269.83 L 830.95 263.85 L 821.72 271.27 C802.53,286.72 792.65,292.38 778.59,295.98 C771.14,297.88 767.61,298.00 717.55,298.00 C664.43,298.00 664.42,298.00 660.02,300.25 C651.39,304.66 651.54,304.01 651.19,338.75 L 650.89 369.37 ZM 763.83 254.07 C764.64,256.32 702.20,253.71 700.07,251.40 C699.62,250.91 698.70,248.80 698.03,246.72 C696.46,241.78 692.67,237.38 687.91,234.96 C682.68,232.28 673.77,232.33 668.49,235.05 C664.19,237.27 657.74,243.77 658.54,245.07 C658.81,245.51 658.06,246.55 656.86,247.38 C655.15,248.58 654.25,248.66 652.60,247.75 C649.52,246.07 595.12,246.16 577.70,247.87 C570.11,248.62 563.70,249.03 563.46,248.79 C562.80,248.14 572.75,233.30 579.03,225.56 C590.50,211.42 609.43,198.11 620.41,196.46 C624.25,195.89 625.97,196.26 631.66,198.93 C640.26,202.95 645.46,207.05 656.03,218.14 L 664.55 227.09 L 667.74 225.75 L 670.93 224.41 L 666.58 218.96 C661.14,212.13 651.72,203.00 646.61,199.59 L 642.72 197.00 L 646.23 197.00 C658.38,197.00 681.85,203.51 698.98,211.64 C719.82,221.52 730.04,228.93 741.88,242.75 C745.66,247.15 748.86,250.00 750.05,250.00 C753.00,250.00 752.48,246.61 748.90,242.53 C747.19,240.59 746.28,239.00 746.88,239.00 C748.05,239.00 763.29,252.54 763.83,254.07 ZM 531.00 497.03 C532.38,497.47 542.05,497.87 552.50,497.91 C573.44,498.01 576.25,497.38 580.43,491.67 C582.47,488.88 582.50,488.03 582.30,435.17 L 582.09 381.50 L 568.05 367.75 C560.32,360.19 553.54,354.00 552.98,354.00 C552.30,354.00 551.97,366.15 552.00,390.25 C552.03,410.19 552.04,435.61 552.02,446.75 L 552.00 467.00 L 526.50 467.00 C509.62,467.00 501.00,467.35 501.00,468.03 C501.00,470.98 507.00,480.18 512.53,485.71 C518.21,491.40 523.48,494.62 531.00,497.03 ZM 622.19 588.92 C619.30,590.07 616.83,590.96 616.71,590.91 C616.60,590.87 615.38,590.48 614.00,590.06 C597.49,585.02 575.93,563.24 561.11,536.62 L 557.84 530.75 L 561.44 531.42 C580.55,535.01 593.21,536.24 615.00,536.62 C636.15,536.99 645.66,536.57 665.78,534.39 L 672.06 533.71 L 667.90 541.10 C654.33,565.20 637.37,582.94 622.19,588.92 ZM 849.50 269.12 C857.47,271.21 867.50,267.85 872.92,261.28 C885.24,246.34 874.29,224.00 854.65,224.00 C841.40,224.00 831.90,233.34 831.79,246.48 C831.71,257.25 838.80,266.32 849.50,269.12 ZM 461.41 497.11 C468.03,501.14 479.36,498.52 484.10,491.86 C487.03,487.74 487.72,479.83 485.59,474.81 C482.31,467.08 471.02,462.68 463.00,466.00 C458.92,467.69 454.35,473.11 452.89,477.98 C450.84,484.80 454.43,492.85 461.41,497.11 ZM 778.25 460.20 C780.04,460.37 781.58,460.50 781.69,460.49 C782.16,460.41 787.29,441.59 789.04,433.50 C792.37,418.10 794.03,405.07 794.62,389.50 C795.15,375.76 794.06,356.73 792.67,355.34 C792.35,355.02 790.93,355.05 789.52,355.41 L 786.95 356.05 L 787.60 373.28 C788.54,398.21 784.83,426.90 777.55,450.93 C776.15,455.56 775.00,459.47 775.00,459.61 C775.00,459.76 776.46,460.02 778.25,460.20 ZM 482.35 254.46 C489.14,257.43 496.48,255.25 500.75,249.00 C503.32,245.24 503.60,241.36 501.64,236.72 C499.43,231.50 496.61,229.67 490.03,229.20 C485.08,228.84 483.62,229.13 480.95,231.03 C477.20,233.71 475.00,238.43 475.00,243.83 C475.00,248.44 477.78,252.45 482.35,254.46 ZM 682.33 263.64 C678.19,265.37 678.09,265.36 674.50,263.14 C668.11,259.19 666.02,253.57 668.93,248.13 C670.40,245.38 675.09,243.00 679.05,243.00 C683.69,243.00 689.00,248.57 689.00,253.44 C689.00,258.06 686.49,261.90 682.33,263.64 ZM 455.08 289.08 C450.89,293.27 445.19,293.20 441.59,288.92 C438.68,285.46 438.33,282.20 440.43,278.15 C444.81,269.67 458.00,272.69 458.00,282.17 C458.00,285.24 457.33,286.82 455.08,289.08 ZM 474.00 486.00 C470.03,489.97 464.00,487.60 464.00,482.08 C464.00,476.46 469.94,474.18 473.83,478.31 C476.53,481.19 476.58,483.42 474.00,486.00 ZM 466.05 261.74 L 468.50 264.78 L 472.24 261.20 L 475.98 257.61 L 473.82 255.31 C472.63,254.04 471.38,253.00 471.04,253.00 C470.70,253.00 468.89,254.28 467.01,255.85 L 463.60 258.70 ZM 691.61 284.75 C692.98,287.95 694.95,288.73 698.34,287.42 C699.67,286.91 699.66,286.33 698.21,282.42 C696.42,277.60 695.27,277.09 692.22,279.75 C690.38,281.35 690.33,281.77 691.61,284.75 ZM 771.65 285.25 C773.09,288.07 774.51,288.60 776.81,287.14 C777.65,286.61 777.88,285.38 777.46,283.70 C776.67,280.54 775.39,279.39 771.63,278.44 C768.97,277.78 768.83,277.89 769.52,280.11 C769.92,281.43 770.88,283.74 771.65,285.25 Z" fill="rgb(14,21,39)"/>
<path d="M 596.50 602.44 C524.39,592.68 461.37,547.22 430.51,482.72 C404.59,428.53 403.90,367.82 428.60,313.25 C430.41,309.26 432.15,306.00 432.48,306.00 C432.94,306.00 436.29,307.91 438.85,309.63 C439.04,309.76 436.72,315.86 433.69,323.18 C426.28,341.08 420.00,364.91 420.00,375.11 L 420.00 379.00 L 441.00 379.00 L 441.00 374.05 C441.00,361.20 445.46,336.47 450.73,320.15 C453.44,311.72 453.66,311.46 459.72,309.58 L 461.93 308.89 L 459.92 314.69 C454.22,331.17 449.71,352.92 448.37,370.38 L 447.71 378.94 L 460.60 379.22 L 473.50 379.50 L 473.50 385.50 L 460.60 385.78 L 447.70 386.06 L 448.30 395.87 C449.15,409.90 452.50,428.25 456.67,441.80 C456.85,442.39 457.02,442.96 457.19,443.51 C460.43,454.01 461.23,456.62 460.28,457.78 C459.91,458.22 459.29,458.46 458.45,458.84 C456.96,459.52 455.57,459.91 455.37,459.70 C454.77,459.11 449.89,445.02 448.37,439.50 C444.31,424.83 441.00,403.61 441.00,392.28 L 441.00 386.00 L 418.70 386.00 L 419.31 401.75 C420.12,422.66 421.39,429.79 426.11,439.92 C430.95,450.31 435.34,457.00 441.92,464.01 C446.84,469.25 446.95,469.50 445.79,472.70 C445.13,474.52 444.31,476.00 443.95,476.00 C443.59,476.00 440.93,473.28 438.04,469.95 C435.14,466.62 432.54,464.13 432.26,464.41 C431.30,465.37 444.72,491.66 450.75,500.63 C472.68,533.25 498.78,556.07 533.50,573.02 C540.10,576.24 547.53,579.61 550.00,580.51 C564.18,585.65 584.32,591.33 583.46,589.93 C583.14,589.42 582.31,589.00 581.60,589.00 C579.12,589.00 560.02,579.05 549.82,572.45 C528.07,558.35 498.47,529.96 491.02,516.04 C489.54,513.28 489.74,513.12 493.78,513.74 C496.43,514.14 498.77,516.19 505.91,524.37 C529.54,551.41 555.00,570.46 582.93,581.97 L 590.35 585.03 L 582.90 577.77 C571.66,566.80 561.91,553.24 553.12,536.35 L 548.89 528.22 L 542.29 526.56 C530.68,523.64 510.85,515.99 498.76,509.77 C484.66,502.51 483.90,501.79 486.93,498.57 L 489.16 496.20 L 495.33 499.70 C507.65,506.69 538.25,519.00 543.32,519.00 C544.75,519.00 544.71,518.49 542.96,514.42 C540.20,507.98 540.39,507.00 544.34,507.00 C547.54,507.00 547.80,507.30 550.35,513.75 C551.82,517.46 553.38,521.06 553.82,521.75 C554.82,523.32 580.71,527.43 599.86,529.06 C614.34,530.29 638.43,529.94 655.05,528.47 C650.31,528.96 645.25,529.39 641.25,529.60 C633.96,529.99 628.00,530.69 628.00,531.16 C628.00,531.62 628.45,532.00 629.00,532.00 C629.55,532.00 630.00,532.45 630.00,533.00 C630.00,533.55 629.33,534.00 628.50,534.00 C627.67,534.00 627.00,534.42 627.00,534.94 C627.00,535.46 625.09,536.09 622.75,536.34 C620.41,536.60 626.15,536.63 635.50,536.42 C641.76,536.29 648.90,535.94 654.29,535.54 C641.15,536.71 631.70,536.91 615.00,536.62 C593.21,536.24 580.55,535.01 561.44,531.42 L 557.84 530.75 L 561.11 536.62 C575.93,563.24 597.49,585.02 614.00,590.06 C615.38,590.48 616.60,590.87 616.71,590.91 C616.83,590.96 619.30,590.07 622.19,588.92 C636.45,583.30 652.28,567.30 665.40,545.41 C659.81,555.11 659.83,555.20 661.91,556.65 C663.10,557.48 663.73,558.66 663.34,559.32 C662.97,559.97 663.63,559.65 664.82,558.60 C665.54,557.97 666.77,556.32 668.28,554.04 C667.16,555.84 666.09,557.51 665.13,558.94 C659.68,567.11 644.16,583.77 637.00,589.13 L 633.50 591.75 L 639.23 590.86 C647.88,589.53 659.99,585.42 671.63,579.89 C681.75,575.08 690.79,569.72 699.55,563.13 C694.91,566.66 690.22,569.85 685.38,572.77 C678.84,576.72 678.38,577.23 678.79,580.01 C679.03,581.65 679.74,583.00 680.36,582.99 C680.69,582.99 681.40,582.71 682.40,582.20 C678.70,584.41 676.57,585.91 677.50,585.66 C686.63,583.29 695.31,580.41 703.64,576.99 C702.76,577.36 701.88,577.72 701.00,578.08 C695.22,580.43 690.32,582.49 690.10,582.66 C689.88,582.83 690.89,583.91 692.35,585.06 C695.19,587.29 695.74,589.86 693.80,591.80 C691.18,594.42 697.37,592.99 707.13,589.20 C698.62,592.66 691.45,595.00 688.40,595.00 C687.08,595.00 686.00,595.38 686.00,595.84 C686.00,596.80 664.38,601.43 652.68,602.97 C641.88,604.39 608.60,604.08 596.50,602.44 ZM 534.78 327.69 C532.20,328.81 529.81,330.68 527.47,333.36 L 523.00 338.47 L 523.00 448.00 L 491.88 448.00 L 492.23 390.25 C492.56,334.25 492.64,332.33 494.70,326.85 C497.15,320.34 500.57,314.85 504.98,310.36 C504.35,311.10 504.00,311.73 504.00,312.23 C504.00,312.69 505.00,312.14 506.23,311.00 C507.46,309.86 509.49,308.66 510.74,308.35 C513.07,307.77 516.37,309.60 515.50,310.99 C515.24,311.42 516.15,313.42 517.53,315.45 C520.70,320.12 525.23,330.81 524.53,331.96 C523.60,333.46 526.82,332.47 528.86,330.63 C530.14,329.47 532.33,328.43 534.78,327.69 ZM 531.00 497.03 C523.48,494.62 518.21,491.40 512.53,485.71 C507.00,480.18 501.00,470.98 501.00,468.03 C501.00,467.35 509.62,467.00 526.50,467.00 L 552.00 467.00 L 552.02 446.75 C552.04,436.12 552.03,412.49 552.00,393.03 C552.04,413.12 552.39,424.00 553.00,424.00 C553.55,424.00 554.02,423.44 554.04,422.75 C554.07,422.06 554.67,423.13 555.38,425.12 C556.09,427.11 557.66,429.81 558.86,431.12 C569.25,442.44 570.00,443.43 569.45,445.16 C569.04,446.45 569.59,447.31 571.30,448.09 C574.40,449.50 577.65,456.76 578.55,464.26 C578.92,467.43 579.63,470.27 580.12,470.57 C580.60,470.87 581.11,474.35 581.24,478.31 C581.37,482.26 581.62,462.10 581.78,433.50 L 582.08 381.50 L 568.04 367.75 C565.17,364.94 562.43,362.32 560.10,360.14 C562.44,362.32 565.18,364.94 568.05,367.75 L 582.09 381.50 L 582.30 435.17 C582.50,488.03 582.47,488.88 580.43,491.67 C576.25,497.38 573.44,498.01 552.50,497.91 C542.05,497.87 532.38,497.47 531.00,497.03 ZM 461.41 497.11 C454.43,492.85 450.84,484.80 452.89,477.98 C454.35,473.11 458.92,467.69 463.00,466.00 C471.02,462.68 482.31,467.08 485.59,474.81 C487.72,479.83 487.03,487.74 484.10,491.86 C479.36,498.52 468.03,501.14 461.41,497.11 ZM 438.54 300.73 C431.22,296.58 425.95,285.33 428.51,279.30 C428.93,278.31 429.37,276.70 429.47,275.72 C429.65,274.08 432.35,270.88 435.44,268.24 C434.62,268.98 433.83,269.80 433.10,270.70 C431.39,272.77 430.00,274.90 430.00,275.45 C430.00,276.00 430.69,275.46 431.53,274.26 C432.41,273.00 433.68,272.32 434.53,272.65 C435.34,272.96 436.00,272.69 436.00,272.05 C436.00,271.40 435.45,271.20 434.75,271.60 C434.06,272.00 433.85,271.94 434.28,271.46 C434.71,270.99 435.82,270.50 436.76,270.36 C437.70,270.22 438.62,269.63 438.82,269.05 C439.01,268.47 440.08,268.00 441.20,268.00 C443.14,268.00 443.16,268.11 441.57,270.53 C440.66,271.92 440.17,273.46 440.47,273.96 C440.78,274.46 440.51,275.19 439.86,275.59 C439.08,276.07 438.96,275.87 439.50,275.00 C440.04,274.13 439.92,273.93 439.14,274.41 C438.49,274.81 438.21,275.53 438.50,276.00 C438.79,276.47 438.58,277.14 438.02,277.49 C437.46,277.84 437.00,279.05 437.00,280.18 C437.00,281.88 437.26,282.03 438.46,281.03 C438.96,280.62 439.50,279.93 439.92,279.21 C438.41,282.79 438.94,285.77 441.59,288.92 C445.19,293.20 450.89,293.27 455.08,289.08 C457.33,286.82 458.00,285.24 458.00,282.17 C458.00,280.33 457.50,278.73 456.67,277.41 C458.74,279.37 460.69,280.69 461.13,280.42 C461.61,280.12 462.00,280.41 462.00,281.06 C462.00,281.94 462.38,281.93 463.50,281.00 C464.33,280.32 465.00,279.18 465.00,278.48 C465.00,277.04 467.74,275.72 469.05,276.53 C469.52,276.82 469.67,277.69 469.38,278.46 C468.99,279.47 469.42,279.70 470.96,279.30 C472.97,278.78 472.99,278.64 471.38,276.87 C470.29,275.67 470.12,275.00 470.90,275.00 C471.57,275.00 471.86,274.58 471.54,274.07 C471.23,273.56 471.91,272.85 473.06,272.48 C474.21,272.12 474.94,271.61 474.68,271.35 C474.43,271.09 472.53,271.59 470.47,272.45 C469.29,272.94 468.46,273.27 467.84,273.42 C480.81,267.64 486.43,265.84 511.00,259.56 C513.97,258.80 518.16,257.83 522.75,256.82 C511.29,259.44 499.72,262.34 494.19,264.14 C488.09,266.13 487.93,266.27 489.59,268.10 C490.54,269.15 490.93,270.00 490.45,270.00 C489.98,270.00 490.07,270.47 490.64,271.04 C491.36,271.76 495.20,271.12 503.09,268.97 C504.94,268.46 507.17,267.90 509.64,267.30 C507.32,267.86 505.23,268.40 503.50,268.87 C492.83,271.79 474.76,277.99 470.90,280.05 C469.86,280.61 469.00,281.73 469.00,282.54 C469.00,283.34 468.61,284.00 468.14,284.00 C467.66,284.00 467.48,285.06 467.73,286.36 C468.23,289.00 465.23,295.58 462.32,298.21 C456.66,303.33 445.27,304.53 438.54,300.73 ZM 474.00 486.00 C476.58,483.42 476.53,481.19 473.83,478.31 C469.94,474.18 464.00,476.46 464.00,482.08 C464.00,487.60 470.03,489.97 474.00,486.00 ZM 487.11 233.20 C487.73,233.41 487.07,234.10 485.65,234.75 C482.30,236.28 481.31,234.69 483.96,232.04 C485.43,230.57 486.00,230.40 486.00,231.42 C486.00,232.20 486.50,233.00 487.11,233.20 ZM 773.55 548.47 C800.16,524.40 820.39,493.93 831.94,460.74 C820.60,493.86 800.66,524.12 773.55,548.47 ZM 783.74 516.14 C790.40,507.86 796.39,498.95 802.47,488.43 C805.25,483.61 808.96,476.29 811.62,470.60 L 811.48 470.90 C804.40,487.02 794.98,502.26 783.74,516.14 ZM 689.66 577.89 C696.45,573.56 705.23,567.39 710.13,563.29 C718.43,556.35 730.21,544.29 739.17,534.13 C735.86,538.00 732.30,541.96 729.00,545.39 C714.52,560.42 704.30,568.94 689.66,577.89 ZM 527.36 327.50 C527.71,328.41 527.36,329.00 526.47,329.00 C525.66,329.00 525.00,328.33 525.00,327.50 C525.00,326.67 525.40,326.00 525.89,326.00 C526.38,326.00 527.05,326.67 527.36,327.50 ZM 507.14 308.33 C512.10,303.95 518.17,300.66 525.37,298.46 C519.33,300.34 511.44,304.79 507.14,308.33 ZM 680.19 532.91 L 680.50 532.29 L 689.40 530.29 C684.81,531.35 681.05,532.42 680.19,532.91 ZM 753.30 546.77 C757.86,542.97 762.37,538.91 766.85,534.57 C770.46,531.07 773.82,527.60 777.00,524.07 C769.70,532.22 761.76,539.83 753.30,546.77 ZM 842.45 384.55 C841.91,376.83 840.89,368.27 839.75,361.17 C840.01,362.69 840.26,364.31 840.52,366.00 C841.46,372.19 842.10,378.38 842.45,384.55 ZM 502.58 239.56 C503.38,242.99 502.78,246.03 500.75,249.00 C502.61,246.27 503.18,242.84 502.58,239.56 ZM 552.99 354.00 C552.35,354.13 552.00,366.43 552.00,389.00 C552.00,389.36 552.00,389.72 552.00,390.07 C551.97,366.09 552.30,354.00 552.98,354.00 C552.98,354.00 552.99,354.00 552.99,354.00 ZM 675.77 541.41 C676.60,539.90 677.40,538.38 678.16,536.90 L 679.91 533.45 C679.52,534.57 677.91,537.64 675.77,541.41 ZM 544.00 285.79 C545.56,285.64 546.30,284.45 547.42,281.50 C546.06,285.10 545.62,285.91 544.00,285.79 ZM 451.87 273.72 C450.29,273.17 448.57,273.03 446.92,273.32 C448.68,272.85 450.25,272.96 451.87,273.72 ZM 438.38 266.00 C439.00,265.59 439.62,265.22 440.21,264.91 C442.29,263.84 444.58,263.21 446.92,262.99 C443.95,263.30 441.03,264.32 438.38,266.00 ZM 466.55 273.38 C466.16,273.20 465.83,272.83 465.40,272.26 C464.90,271.61 464.47,270.91 464.23,270.41 C464.57,270.81 464.83,271.19 465.00,271.51 C465.46,272.35 466.03,273.03 466.55,273.38 ZM 667.55 534.20 L 665.78 534.39 C664.07,534.58 662.44,534.75 660.87,534.91 C663.36,534.57 665.78,534.32 667.55,534.20 ZM 541.34 277.65 C542.59,274.27 544.25,270.18 545.87,266.61 C544.54,269.53 542.76,273.93 541.34,277.65 ZM 442.01 275.92 C441.43,276.51 440.92,277.21 440.49,278.02 C440.51,277.98 440.52,277.94 440.53,277.90 C440.72,277.32 441.28,276.59 442.01,275.92 ZM 723.43 520.61 C738.00,515.47 751.22,509.36 762.42,502.54 C751.20,509.37 738.01,515.47 723.43,520.61 ZM 525.98 298.27 C529.41,297.27 533.71,296.72 538.20,296.61 C533.73,296.72 529.44,297.27 525.98,298.27 ZM 459.24 266.03 C458.23,265.37 457.19,264.82 456.12,264.37 C457.18,264.81 458.19,265.34 459.14,265.97 C459.18,265.99 459.21,266.01 459.24,266.03 Z" fill="rgb(36,124,206)"/>
<path d="M 677.50 447.08 C655.60,426.40 624.23,396.55 597.50,370.96 C552.43,327.80 552.50,327.87 544.56,326.66 C540.89,326.11 537.71,326.42 534.78,327.69 C532.33,328.43 530.14,329.47 528.86,330.63 C526.82,332.47 523.60,333.46 524.53,331.96 C525.23,330.81 520.70,320.12 517.53,315.45 C516.15,313.42 515.24,311.42 515.50,310.99 C516.37,309.60 513.07,307.77 510.74,308.35 C509.49,308.66 507.46,309.86 506.23,311.00 C505.00,312.14 504.00,312.69 504.00,312.23 C504.00,311.73 504.35,311.10 504.98,310.36 C505.68,309.66 506.39,308.98 507.14,308.33 C511.44,304.79 519.32,300.35 525.37,298.46 L 525.37 298.46 C525.52,298.41 525.68,298.36 525.83,298.32 C525.88,298.30 525.93,298.29 525.98,298.27 C526.00,298.27 526.01,298.26 526.02,298.26 C529.47,297.27 533.74,296.72 538.18,296.61 L 538.20 296.61 C544.60,296.45 551.37,297.18 556.50,298.77 C568.65,302.55 576.35,308.54 605.07,336.57 C619.69,350.83 642.98,373.51 656.82,386.96 L 682.00 411.43 L 682.00 430.71 C682.00,441.32 681.66,449.98 681.25,449.96 C680.84,449.93 679.15,448.64 677.50,447.08 ZM 687.00 502.33 C672.99,500.13 659.94,494.67 649.76,486.75 C646.60,484.29 631.70,470.31 616.65,455.68 L 589.29 429.07 L 588.57 408.94 C588.18,397.87 588.06,388.60 588.33,388.34 C588.59,388.08 605.77,404.21 626.50,424.18 C647.24,444.16 666.63,462.15 669.59,464.17 C680.77,471.80 693.64,474.60 703.11,471.47 C713.47,468.04 718.33,463.84 722.70,454.49 L 724.47 450.70 C724.42,451.07 724.36,451.34 724.30,451.50 C721.97,457.89 721.83,458.55 723.33,456.03 L 724.81 453.56 L 726.95 457.19 C728.13,459.19 729.75,461.07 730.55,461.38 C731.35,461.69 732.00,462.48 732.00,463.13 C732.00,463.79 732.69,465.04 733.54,465.92 C734.39,466.79 736.86,469.94 739.04,472.93 C742.85,478.16 742.93,478.42 741.26,480.43 C740.31,481.57 740.95,481.21 742.68,479.64 C743.39,479.00 744.14,478.17 744.90,477.18 C739.17,485.16 731.66,491.62 723.00,495.85 C711.02,501.69 697.92,504.05 687.00,502.33 ZM 544.00 285.79 C543.62,285.76 543.18,285.69 542.65,285.58 C541.00,285.25 539.50,284.83 539.32,284.65 C539.05,284.38 539.94,281.46 541.34,277.65 C542.76,273.93 544.54,269.53 545.87,266.61 C547.59,262.82 549.00,259.57 549.00,259.39 L 549.00 259.38 C548.95,258.98 541.18,260.40 531.69,262.37 C524.40,263.88 516.12,265.72 509.64,267.30 C507.17,267.90 504.94,268.46 503.09,268.97 C495.20,271.12 491.36,271.76 490.64,271.04 C490.07,270.47 489.98,270.00 490.45,270.00 C490.93,270.00 490.54,269.15 489.59,268.10 C487.93,266.27 488.09,266.13 494.19,264.14 C499.72,262.34 511.29,259.44 522.75,256.82 C535.27,254.07 550.82,251.00 552.85,251.00 C553.25,251.00 554.41,249.54 555.43,247.75 C565.96,229.36 586.64,205.35 596.23,200.37 C600.92,197.94 598.19,197.58 589.08,199.42 C565.71,204.16 535.32,219.19 516.86,235.13 C513.76,237.81 510.99,240.00 510.69,240.00 C510.40,240.00 509.85,238.59 509.47,236.87 C508.89,234.21 509.21,233.40 511.64,231.41 C514.87,228.77 514.16,228.20 510.57,230.55 C508.31,232.03 508.10,231.95 505.93,228.90 L 503.65 225.70 L 505.96 223.83 C507.23,222.80 512.78,219.43 518.29,216.34 C565.39,189.90 622.33,181.39 674.91,192.92 C686.93,195.55 701.00,200.02 701.00,201.21 C701.00,201.71 701.44,201.85 701.97,201.52 C702.66,201.09 707.57,202.87 713.81,205.60 C712.53,205.14 711.41,204.81 710.50,204.63 C707.74,204.10 707.68,204.14 709.76,205.18 C711.01,205.81 712.41,207.71 712.87,209.41 C713.55,211.89 713.30,212.99 711.62,215.00 C710.47,216.38 710.18,216.94 710.96,216.25 C713.08,214.41 714.46,214.73 712.87,216.69 C711.94,217.84 711.90,218.14 712.75,217.63 C713.44,217.22 714.00,217.34 714.00,217.91 C714.00,218.48 717.29,221.16 721.32,223.88 C722.38,224.59 723.63,225.52 724.97,226.58 C718.08,221.41 710.02,216.87 698.98,211.64 C681.85,203.51 658.38,197.00 646.23,197.00 L 642.72 197.00 L 646.61 199.59 C651.72,203.00 661.14,212.13 666.58,218.96 L 670.93 224.41 L 667.74 225.75 L 664.55 227.09 L 656.03 218.14 C645.46,207.05 640.26,202.95 631.66,198.93 C625.97,196.26 624.25,195.89 620.41,196.46 C609.43,198.11 590.50,211.42 579.03,225.56 C572.75,233.30 562.80,248.14 563.46,248.79 C563.70,249.03 570.11,248.62 577.70,247.87 C595.12,246.16 649.52,246.07 652.60,247.75 C654.25,248.66 655.15,248.58 656.86,247.38 C658.06,246.55 658.81,245.51 658.54,245.07 C658.17,244.47 659.35,242.76 661.14,240.88 C661.35,240.84 661.86,240.58 662.71,240.13 C666.18,238.31 670.93,238.01 670.31,239.64 C670.02,240.39 669.46,241.00 669.06,241.00 C668.66,241.00 668.33,241.68 668.33,242.50 C668.33,243.32 668.73,244.00 669.23,244.00 C669.72,244.00 669.78,244.56 669.37,245.25 C668.79,246.20 668.99,246.20 670.20,245.22 C670.96,244.60 673.30,243.89 675.73,243.49 C672.77,244.33 670.00,246.13 668.93,248.13 C668.54,248.86 668.24,249.60 668.03,250.33 C668.25,249.03 668.48,248.06 668.61,247.83 C668.83,247.47 667.66,247.68 666.01,248.30 C661.76,249.91 662.13,252.75 667.45,259.28 C672.77,265.81 674.02,269.54 671.50,271.38 C669.91,272.54 670.03,272.77 672.91,273.96 C673.81,274.33 674.83,274.59 675.94,274.73 C674.64,274.60 673.33,274.36 672.02,274.01 C665.95,272.37 659.49,265.87 657.86,259.77 L 656.64 255.19 L 642.07 254.46 C624.42,253.57 584.66,254.46 569.33,256.09 L 558.16 257.28 L 553.73 266.89 C551.29,272.18 548.48,278.68 547.48,281.34 C547.46,281.40 547.44,281.45 547.42,281.50 C546.30,284.45 545.56,285.64 544.00,285.79 ZM 552.99 354.00 C553.40,354.06 556.19,356.49 560.10,360.14 L 560.11 360.15 C562.44,362.33 565.18,364.95 568.04,367.75 L 582.08 381.50 L 581.78 433.50 C581.62,462.10 581.37,482.26 581.24,478.31 C581.11,474.35 580.60,470.87 580.12,470.57 C579.63,470.27 578.92,467.43 578.55,464.26 C577.65,456.76 574.40,449.50 571.30,448.09 C569.59,447.31 569.04,446.45 569.45,445.16 C570.00,443.43 569.25,442.44 558.86,431.12 C557.66,429.81 556.09,427.11 555.38,425.12 C554.67,423.13 554.07,422.06 554.04,422.75 C554.02,423.44 553.55,424.00 553.00,424.00 C552.39,424.00 552.04,413.13 552.00,393.04 L 552.00 393.03 L 552.00 390.25 C552.00,390.19 552.00,390.13 552.00,390.07 L 552.00 390.04 C552.00,389.70 552.00,389.35 552.00,389.00 C552.00,366.43 552.35,354.13 552.99,354.00 ZM 773.55 548.47 C764.35,556.72 754.33,564.30 743.54,571.08 C733.93,577.12 719.18,584.29 707.13,589.20 L 707.13 589.20 C697.37,592.99 691.18,594.42 693.80,591.80 C695.74,589.86 695.19,587.29 692.35,585.06 C690.89,583.91 689.88,582.83 690.10,582.66 C690.32,582.49 695.22,580.43 701.00,578.08 C701.88,577.72 702.76,577.36 703.64,576.99 C721.47,569.65 737.69,559.76 753.30,546.77 C761.76,539.83 769.70,532.22 776.99,524.07 L 777.00 524.07 C779.33,521.47 781.57,518.84 783.74,516.14 C794.87,502.40 804.22,487.31 811.28,471.36 C811.19,471.56 811.10,471.77 811.01,471.97 L 807.03 481.03 L 811.06 485.18 C813.43,487.63 814.86,489.92 814.53,490.78 C814.15,491.77 814.46,492.04 815.51,491.63 C816.76,491.15 816.85,491.41 816.00,493.00 C815.17,494.55 815.25,494.84 816.36,494.42 C816.56,494.34 816.83,494.08 817.15,493.67 C805.82,514.01 791.06,532.63 773.55,548.47 ZM 680.19 532.91 C680.06,532.98 680.00,533.04 680.00,533.08 C680.00,533.16 679.97,533.28 679.91,533.45 L 678.16 536.90 C677.40,538.38 676.60,539.90 675.77,541.41 C673.57,545.32 670.80,549.99 668.28,554.04 C666.77,556.32 665.54,557.97 664.82,558.60 C663.63,559.65 662.97,559.97 663.34,559.32 C663.73,558.66 663.10,557.48 661.91,556.65 C659.83,555.20 659.81,555.11 665.40,545.41 C666.24,544.00 667.08,542.56 667.90,541.10 L 672.06 533.71 L 667.55 534.20 C665.78,534.32 663.36,534.57 660.87,534.91 C658.55,535.15 656.38,535.36 654.29,535.54 C648.90,535.94 641.76,536.29 635.50,536.42 C626.15,536.63 620.41,536.60 622.75,536.34 C625.09,536.09 627.00,535.46 627.00,534.94 C627.00,534.42 627.67,534.00 628.50,534.00 C629.33,534.00 630.00,533.55 630.00,533.00 C630.00,532.45 629.55,532.00 629.00,532.00 C628.45,532.00 628.00,531.62 628.00,531.16 C628.00,530.69 633.96,529.99 641.25,529.60 C645.25,529.39 650.31,528.96 655.05,528.47 C658.97,528.13 662.47,527.72 665.34,527.25 L 676.18 525.50 L 678.95 519.00 C681.54,512.95 681.93,512.52 684.61,512.83 C686.19,513.01 687.69,513.36 687.95,513.61 C688.20,513.86 687.66,516.07 686.76,518.51 C685.85,520.95 685.43,523.14 685.81,523.38 C686.90,524.05 707.31,518.51 720.49,513.96 C732.27,509.90 755.30,498.91 760.32,494.97 C762.66,493.12 762.75,492.76 761.50,490.34 C760.75,488.90 760.24,485.34 760.35,482.39 C760.50,478.43 760.90,476.96 762.91,474.67 C761.55,476.31 761.92,476.83 764.00,476.29 C765.68,475.85 766.00,476.26 766.00,478.85 C766.00,480.94 766.66,482.29 768.08,483.04 C769.40,483.75 769.93,484.73 769.54,485.74 C769.16,486.75 770.12,488.56 772.16,490.67 C773.94,492.50 774.97,494.01 774.45,494.02 C773.93,494.02 774.17,494.47 775.00,495.00 C776.22,495.79 776.10,495.97 774.33,495.98 C769.40,496.02 767.10,498.49 771.25,499.29 L 771.36 499.31 C768.26,499.19 766.83,499.86 762.42,502.54 C761.08,503.36 759.70,504.17 758.31,504.96 C748.04,510.81 736.30,516.06 723.50,520.58 L 723.43 520.61 C713.01,524.29 701.88,527.47 690.25,530.09 C689.96,530.16 689.68,530.22 689.40,530.29 L 689.39 530.29 L 680.50 532.29 ZM 665.68 384.18 L 650.89 369.37 L 651.19 338.75 C651.24,334.63 651.27,331.01 651.31,327.82 C651.64,331.60 652.28,333.95 653.06,333.46 C653.58,333.14 654.00,333.61 654.00,334.50 C654.00,335.39 654.45,335.84 655.00,335.50 C655.56,335.15 656.00,335.93 656.00,337.25 C656.00,338.55 657.58,342.23 659.50,345.43 C661.42,348.63 663.00,351.58 663.00,352.00 C663.00,352.41 663.72,353.35 664.59,354.08 C665.47,354.80 668.35,359.92 671.00,365.45 C675.41,374.65 676.45,377.83 677.41,385.00 C677.99,389.34 678.12,389.55 679.00,387.50 C679.72,385.83 679.90,386.07 680.11,389.00 C680.50,394.59 681.73,364.14 681.87,345.25 L 682.00 328.00 L 682.00 363.50 C682.00,383.02 681.66,399.00 681.24,399.00 C680.82,399.00 673.82,392.33 665.68,384.18 ZM 689.66 577.89 C688.00,578.91 686.28,579.93 684.50,580.96 C683.76,581.39 683.05,581.81 682.40,582.20 C681.40,582.71 680.69,582.99 680.36,582.99 C679.74,583.00 679.03,581.65 678.79,580.01 C678.38,577.23 678.84,576.72 685.38,572.77 C690.22,569.85 694.91,566.66 699.55,563.13 C713.20,552.86 726.17,539.60 741.50,520.79 C743.62,518.18 745.60,516.91 748.25,516.44 C750.62,516.02 752.00,516.16 752.00,516.83 C752.00,518.25 746.14,525.98 739.17,534.13 C730.21,544.29 718.43,556.35 710.13,563.29 C705.23,567.39 696.45,573.56 689.66,577.89 ZM 482.35 254.46 C477.78,252.45 475.00,248.44 475.00,243.83 C475.00,238.43 477.20,233.71 480.95,231.03 C483.62,229.13 485.08,228.84 490.03,229.20 C496.61,229.67 499.43,231.50 501.64,236.72 C502.05,237.70 502.37,238.64 502.58,239.56 C503.18,242.84 502.61,246.27 500.75,249.00 C496.48,255.25 489.14,257.43 482.35,254.46 ZM 451.87 273.72 C450.25,272.96 448.68,272.85 446.92,273.32 C445.11,273.64 443.38,274.48 442.01,275.92 C441.28,276.59 440.72,277.32 440.53,277.90 C440.52,277.94 440.51,277.98 440.49,278.02 C440.47,278.06 440.45,278.10 440.43,278.15 C440.24,278.51 440.07,278.86 439.92,279.21 C439.50,279.93 438.96,280.62 438.46,281.03 C437.26,282.03 437.00,281.88 437.00,280.18 C437.00,279.05 437.46,277.84 438.02,277.49 C438.58,277.14 438.79,276.47 438.50,276.00 C438.21,275.53 438.49,274.81 439.14,274.41 C439.92,273.93 440.04,274.13 439.50,275.00 C438.96,275.87 439.08,276.07 439.86,275.59 C440.51,275.19 440.78,274.46 440.47,273.96 C440.17,273.46 440.66,271.92 441.57,270.53 C443.16,268.11 443.14,268.00 441.20,268.00 C440.08,268.00 439.01,268.47 438.82,269.05 C438.62,269.63 437.70,270.22 436.76,270.36 C435.82,270.50 434.71,270.99 434.28,271.46 C433.85,271.94 434.06,272.00 434.75,271.60 C435.45,271.20 436.00,271.40 436.00,272.05 C436.00,272.69 435.34,272.96 434.53,272.65 C433.68,272.32 432.41,273.00 431.53,274.26 C430.69,275.46 430.00,276.00 430.00,275.45 C430.00,274.90 431.39,272.77 433.10,270.70 C433.83,269.80 434.62,268.98 435.44,268.24 C436.40,267.42 437.40,266.65 438.38,266.00 C441.03,264.32 443.95,263.30 446.92,262.99 C450.04,262.71 453.24,263.18 456.12,264.37 C457.19,264.82 458.23,265.37 459.24,266.03 C461.12,267.29 463.08,269.04 464.23,270.41 C464.47,270.91 464.90,271.61 465.40,272.26 C465.83,272.83 466.16,273.20 466.55,273.38 C466.89,273.61 467.20,273.70 467.44,273.60 C467.57,273.54 467.71,273.48 467.84,273.42 C468.46,273.27 469.29,272.94 470.47,272.45 C472.53,271.59 474.43,271.09 474.68,271.35 C474.94,271.61 474.21,272.12 473.06,272.48 C471.91,272.85 471.23,273.56 471.54,274.07 C471.86,274.58 471.57,275.00 470.90,275.00 C470.12,275.00 470.29,275.67 471.38,276.87 C472.99,278.64 472.97,278.78 470.96,279.30 C469.42,279.70 468.99,279.47 469.38,278.46 C469.67,277.69 469.52,276.82 469.05,276.53 C467.74,275.72 465.00,277.04 465.00,278.48 C465.00,279.18 464.33,280.32 463.50,281.00 C462.38,281.93 462.00,281.94 462.00,281.06 C462.00,280.41 461.61,280.12 461.13,280.42 C460.69,280.69 458.74,279.37 456.67,277.41 C455.55,275.64 453.82,274.38 451.87,273.72 ZM 679.92 418.75 C679.96,423.29 680.22,427.00 680.50,427.00 C680.78,427.00 680.99,423.51 680.98,419.25 L 680.97 411.50 L 669.67 400.00 C663.46,393.67 657.32,387.60 656.02,386.50 C652.35,383.39 654.76,386.85 660.44,392.83 C663.22,395.76 665.78,398.92 666.13,399.85 C667.26,402.86 672.88,408.19 674.13,407.42 C674.81,407.00 675.04,407.12 674.69,407.70 C674.34,408.26 675.12,409.71 676.42,410.93 C678.18,412.58 678.92,412.81 679.31,411.82 C679.60,411.10 679.88,414.21 679.92,418.75 ZM 466.05 261.74 L 463.60 258.70 L 467.01 255.85 C468.89,254.28 470.70,253.00 471.04,253.00 C471.38,253.00 472.63,254.04 473.82,255.31 L 475.98 257.61 L 472.24 261.20 L 468.50 264.78 ZM 691.61 284.75 C690.33,281.77 690.38,281.35 692.22,279.75 C695.27,277.09 696.42,277.60 698.21,282.42 C699.66,286.33 699.67,286.91 698.34,287.42 C694.95,288.73 692.98,287.95 691.61,284.75 ZM 736.59 236.91 C742.05,242.45 744.79,244.59 745.59,243.92 C746.23,243.40 747.37,243.12 748.12,243.32 C748.88,243.51 749.16,243.48 748.74,243.25 C747.44,242.53 746.10,239.56 746.72,239.07 C746.51,239.39 747.40,240.83 748.90,242.53 C752.48,246.61 753.00,250.00 750.05,250.00 C748.86,250.00 745.66,247.15 741.88,242.75 C740.10,240.67 738.35,238.73 736.59,236.91 ZM 487.11 233.20 C486.50,233.00 486.00,232.20 486.00,231.42 C486.00,230.40 485.43,230.57 483.96,232.04 C481.31,234.69 482.30,236.28 485.65,234.75 C487.07,234.10 487.73,233.41 487.11,233.20 ZM 761.95 490.91 C763.37,493.55 764.00,493.56 764.00,490.94 C764.00,489.81 763.55,489.16 763.00,489.50 C762.45,489.84 762.00,489.57 762.00,488.89 C762.00,488.22 761.74,487.93 761.42,488.25 C761.10,488.57 761.34,489.77 761.95,490.91 ZM 527.36 327.50 C527.05,326.67 526.38,326.00 525.89,326.00 C525.40,326.00 525.00,326.67 525.00,327.50 C525.00,328.33 525.66,329.00 526.47,329.00 C527.36,329.00 527.71,328.41 527.36,327.50 ZM 667.64 252.78 C667.56,256.63 669.93,260.31 674.50,263.14 C674.83,263.34 675.13,263.53 675.41,263.70 C674.05,262.99 672.44,261.83 670.26,260.09 C667.23,257.68 667.05,257.20 667.61,253.00 C667.62,252.93 667.63,252.85 667.64,252.78 ZM 727.73 212.20 C730.31,213.52 732.78,214.84 735.00,216.10 C743.51,220.94 752.55,226.96 760.11,232.75 C750.70,225.73 738.17,217.86 727.73,212.20 ZM 677.79 409.60 C678.50,410.37 678.64,411.00 678.10,411.00 C677.06,411.00 675.56,409.10 676.15,408.53 C676.34,408.35 677.08,408.83 677.79,409.60 ZM 667.87 235.39 C668.08,235.27 668.29,235.16 668.49,235.05 C673.77,232.33 682.68,232.28 687.91,234.96 C688.70,235.36 689.46,235.81 690.18,236.31 C686.89,234.17 682.86,233.00 678.40,233.00 C674.88,233.00 671.07,233.91 667.87,235.39 ZM 826.56 474.56 C828.93,468.92 831.21,462.97 832.82,458.00 C835.58,449.47 837.77,440.97 839.38,432.47 C837.59,442.07 835.10,451.51 831.94,460.74 L 831.94 460.74 C830.32,465.40 828.52,470.01 826.56,474.56 ZM 652.94 306.56 C654.13,303.15 656.23,302.19 660.02,300.25 C656.34,302.13 654.21,303.82 652.94,306.56 ZM 790.68 488.17 C790.89,487.08 791.00,485.91 791.00,484.69 C791.00,479.68 788.88,474.99 785.67,471.87 C786.75,472.88 787.72,474.08 788.53,475.47 C790.94,479.57 791.58,484.12 790.68,488.17 ZM 776.68 499.71 C779.49,499.58 782.00,498.87 784.11,497.66 C783.74,497.89 783.37,498.10 782.98,498.30 C780.95,499.35 779.25,499.77 776.68,499.71 ZM 683.99 244.84 C682.73,243.92 681.35,243.28 680.00,243.07 C681.64,243.08 682.55,243.53 683.99,244.84 ZM 774.81 468.14 C772.05,468.50 769.18,469.56 766.89,471.05 C769.39,469.32 772.12,468.36 774.81,468.14 ZM 689.00 253.32 C688.97,251.58 688.27,249.75 687.17,248.13 C688.53,249.84 688.98,251.24 689.00,253.32 ZM 772.31 246.71 C771.79,247.15 771.36,247.57 771.14,247.84 C770.73,247.58 771.10,247.20 772.31,246.71 ZM 692.79 269.25 C694.44,267.59 696.07,265.48 697.00,263.73 C695.88,265.85 694.45,267.70 692.79,269.25 ZM 746.90 239.00 C746.92,239.00 746.93,239.00 746.95,239.00 C747.52,239.00 751.77,242.54 755.87,246.21 C751.81,242.59 747.59,239.09 746.90,239.00 ZM 682.33 263.64 C683.20,263.27 683.99,262.82 684.71,262.28 C683.77,263.02 682.70,263.61 681.53,263.99 C681.44,264.02 681.36,264.05 681.27,264.07 C681.59,263.94 681.94,263.80 682.33,263.64 ZM 750.62 467.48 C751.76,465.06 752.80,462.50 753.62,460.00 C752.77,462.57 751.77,465.07 750.62,467.48 ZM 698.03 246.72 C698.70,248.80 699.61,250.90 700.07,251.40 C700.06,251.39 700.05,251.38 700.04,251.37 C699.60,250.89 698.70,248.80 698.03,246.72 ZM 681.33 274.65 C682.12,274.53 682.92,274.38 683.71,274.19 C682.93,274.38 682.13,274.54 681.33,274.65 Z" fill="rgb(54,166,198)"/>
<path d="M 771.25 499.29 C767.10,498.49 769.40,496.02 774.33,495.98 C776.10,495.97 776.22,495.79 775.00,495.00 C774.17,494.47 773.93,494.02 774.45,494.02 C774.97,494.01 773.94,492.50 772.16,490.67 C770.12,488.56 769.16,486.75 769.54,485.74 C769.93,484.73 769.40,483.75 768.08,483.04 C766.66,482.29 766.00,480.94 766.00,478.85 C766.00,476.26 765.68,475.85 764.00,476.29 C761.23,477.01 761.50,475.85 764.83,472.67 C767.71,469.91 772.62,468.00 776.84,468.00 C784.36,468.00 791.00,475.82 791.00,484.69 C791.00,495.33 782.67,501.49 771.25,499.29 ZM 816.00 493.00 C816.85,491.41 816.76,491.15 815.51,491.63 C814.46,492.04 814.15,491.77 814.53,490.78 C814.86,489.92 813.43,487.63 811.06,485.18 L 807.03 481.03 L 811.01 471.97 C813.21,466.99 815.00,462.63 815.00,462.28 C815.00,461.93 811.23,465.33 806.62,469.82 C802.01,474.32 798.02,478.00 797.74,478.00 C797.46,478.00 796.46,476.83 795.53,475.40 L 793.82 472.80 L 803.28 463.15 C814.04,452.18 824.00,437.80 824.00,433.23 C824.00,431.61 824.44,427.98 824.97,425.17 C828.28,407.68 828.33,378.85 825.06,360.62 C823.89,354.08 823.06,348.64 823.22,348.54 C823.63,348.25 834.84,345.86 835.72,345.87 C836.79,345.88 838.68,353.83 840.52,366.00 C845.24,397.24 842.71,427.42 832.82,458.00 C828.31,471.93 818.52,493.59 816.36,494.42 C815.25,494.84 815.17,494.55 816.00,493.00 ZM 761.95 490.91 C761.34,489.77 761.10,488.57 761.42,488.25 C761.74,487.93 762.00,488.22 762.00,488.89 C762.00,489.57 762.45,489.84 763.00,489.50 C763.55,489.16 764.00,489.81 764.00,490.94 C764.00,493.56 763.37,493.55 761.95,490.91 ZM 741.26 480.43 C742.93,478.42 742.85,478.16 739.04,472.93 C736.86,469.94 734.39,466.79 733.54,465.92 C732.69,465.04 732.00,463.79 732.00,463.13 C732.00,462.48 731.35,461.69 730.55,461.38 C729.75,461.07 728.13,459.19 726.95,457.19 L 724.81 453.56 L 723.33 456.03 C721.83,458.55 721.97,457.89 724.30,451.50 C725.02,449.53 725.52,430.87 725.75,396.90 L 726.11 345.30 L 741.81 344.70 C764.64,343.82 781.50,340.30 798.74,332.80 L 807.99 328.79 L 807.39 325.03 C806.56,319.86 809.70,312.96 814.12,310.24 C821.55,305.68 829.00,306.20 835.10,311.71 C839.73,315.89 841.45,321.05 840.14,326.85 C837.53,338.49 825.88,343.15 815.10,336.87 L 811.69 334.89 L 806.10 337.86 C796.00,343.21 783.14,348.02 769.71,351.46 L 756.50 354.85 L 755.97 404.67 C755.49,449.21 755.24,455.08 753.62,460.00 C751.01,467.93 746.32,476.34 742.68,479.64 C740.95,481.21 740.31,481.57 741.26,480.43 ZM 778.25 460.20 C776.46,460.02 775.00,459.76 775.00,459.61 C775.00,459.47 776.15,455.56 777.55,450.93 C784.83,426.90 788.54,398.21 787.60,373.28 L 786.95 356.05 L 789.52 355.41 C790.93,355.05 792.35,355.02 792.67,355.34 C794.06,356.73 795.15,375.76 794.62,389.50 C794.03,405.07 792.37,418.10 789.04,433.50 C787.29,441.59 782.16,460.41 781.69,460.49 C781.58,460.50 780.04,460.37 778.25,460.20 ZM 679.92 418.75 C679.88,414.21 679.60,411.10 679.31,411.82 C678.92,412.81 678.18,412.58 676.42,410.93 C675.12,409.71 674.34,408.26 674.69,407.70 C675.04,407.12 674.81,407.00 674.13,407.42 C672.88,408.19 667.26,402.86 666.13,399.85 C665.78,398.92 663.22,395.76 660.44,392.83 C654.76,386.85 652.35,383.39 656.02,386.50 C657.32,387.60 663.46,393.67 669.67,400.00 L 680.97 411.50 L 680.98 419.25 C680.99,423.51 680.78,427.00 680.50,427.00 C680.22,427.00 679.96,423.29 679.92,418.75 ZM 677.79 409.60 C677.08,408.83 676.34,408.35 676.15,408.53 C675.56,409.10 677.06,411.00 678.10,411.00 C678.64,411.00 678.50,410.37 677.79,409.60 ZM 680.11 389.00 C679.90,386.07 679.72,385.83 679.00,387.50 C678.12,389.55 677.99,389.34 677.41,385.00 C676.45,377.83 675.41,374.65 671.00,365.45 C668.35,359.92 665.47,354.80 664.59,354.08 C663.72,353.35 663.00,352.41 663.00,352.00 C663.00,351.58 661.42,348.63 659.50,345.43 C657.58,342.23 656.00,338.55 656.00,337.25 C656.00,335.93 655.56,335.15 655.00,335.50 C654.45,335.84 654.00,335.39 654.00,334.50 C654.00,333.61 653.58,333.14 653.06,333.46 C651.63,334.34 650.70,325.85 651.20,316.42 C651.72,306.52 653.25,303.71 660.02,300.25 C664.42,298.00 664.43,298.00 717.55,298.00 C767.61,298.00 771.14,297.88 778.59,295.98 C792.65,292.38 802.53,286.72 821.72,271.27 L 830.95 263.85 L 834.15 266.84 L 837.34 269.83 L 819.42 288.06 C794.37,313.54 784.73,320.48 767.45,325.49 C758.86,327.98 758.42,328.00 720.39,328.00 L 682.00 328.00 L 681.87 345.25 C681.73,364.14 680.50,394.59 680.11,389.00 ZM 771.65 285.25 C770.88,283.74 769.92,281.43 769.52,280.11 C768.83,277.89 768.97,277.78 771.63,278.44 C775.39,279.39 776.67,280.54 777.46,283.70 C777.88,285.38 777.65,286.61 776.81,287.14 C774.51,288.60 773.09,288.07 771.65,285.25 ZM 789.12 278.55 L 785.01 273.09 L 780.25 273.58 C774.11,274.21 767.33,270.89 764.63,265.94 L 762.75 262.50 L 745.13 262.37 C735.43,262.30 723.22,261.73 718.00,261.11 C697.43,258.66 699.84,258.36 697.00,263.73 C695.62,266.32 692.70,269.70 690.49,271.24 C685.61,274.65 677.57,275.89 672.91,273.96 C670.03,272.77 669.91,272.54 671.50,271.38 C674.02,269.54 672.77,265.81 667.45,259.28 C662.13,252.75 661.76,249.91 666.01,248.30 C667.66,247.68 668.83,247.47 668.61,247.83 C668.39,248.20 667.94,250.53 667.61,253.00 C667.05,257.20 667.23,257.68 670.26,260.09 C675.98,264.64 677.72,265.25 681.53,263.99 C685.94,262.54 689.00,258.23 689.00,253.50 C689.00,250.60 688.24,249.04 685.46,246.26 C682.11,242.91 681.67,242.76 676.86,243.33 C674.07,243.66 671.07,244.51 670.20,245.22 C668.99,246.20 668.79,246.20 669.37,245.25 C669.78,244.56 669.72,244.00 669.23,244.00 C668.73,244.00 668.33,243.32 668.33,242.50 C668.33,241.68 668.66,241.00 669.06,241.00 C669.46,241.00 670.02,240.39 670.31,239.64 C670.93,238.01 666.18,238.31 662.71,240.13 C660.57,241.25 660.56,241.23 662.24,239.33 C665.46,235.69 672.34,233.00 678.40,233.00 C687.82,233.00 695.32,238.24 698.03,246.72 C698.70,248.80 699.60,250.89 700.04,251.37 C702.19,253.71 764.65,256.35 763.83,254.07 C763.30,252.59 748.07,239.00 746.95,239.00 C745.86,239.00 747.32,242.46 748.74,243.25 C749.16,243.48 748.88,243.51 748.12,243.32 C747.37,243.12 746.23,243.40 745.59,243.92 C744.79,244.59 742.03,242.44 736.54,236.85 C732.20,232.43 725.35,226.60 721.32,223.88 C717.29,221.16 714.00,218.48 714.00,217.91 C714.00,217.34 713.44,217.22 712.75,217.63 C711.90,218.14 711.94,217.84 712.87,216.69 C714.46,214.73 713.08,214.41 710.96,216.25 C710.18,216.94 710.47,216.38 711.62,215.00 C713.30,212.99 713.55,211.89 712.87,209.41 C712.41,207.71 711.01,205.81 709.76,205.18 C707.68,204.14 707.74,204.10 710.50,204.63 C720.07,206.47 752.07,225.46 766.75,238.01 C774.23,244.41 775.06,245.65 772.50,246.64 C769.23,247.89 771.33,248.48 777.97,248.17 C784.50,247.86 785.11,248.01 787.50,250.60 C789.73,253.00 790.72,253.33 795.28,253.14 C800.22,252.94 816.97,250.55 821.60,249.38 C823.27,248.97 823.88,249.40 824.37,251.33 C824.71,252.70 825.24,254.47 825.55,255.28 C826.00,256.46 823.98,257.06 815.31,258.35 C809.36,259.23 801.69,260.25 798.25,260.61 C794.81,260.97 792.00,261.54 792.00,261.88 C792.00,262.23 794.47,265.80 797.50,269.82 C800.53,273.84 803.00,277.44 803.00,277.82 C803.00,278.49 794.78,284.00 793.77,284.00 C793.48,284.00 791.39,281.55 789.12,278.55 ZM 849.50 269.12 C838.80,266.32 831.71,257.25 831.79,246.48 C831.90,233.34 841.40,224.00 854.65,224.00 C874.29,224.00 885.24,246.34 872.92,261.28 C867.50,267.85 857.47,271.21 849.50,269.12 Z" fill="rgb(103,224,205)"/>
</g>
</svg>