<svg width="50" height="50" viewBox="0 0 50 50" fill="none" xmlns="http://www.w3.org/2000/svg">
<path d="M48.7284 23.9815C48.2006 11.1407 37.7559 1.19741 24.9046 1.25021C11.3302 1.30297 0.447493 12.7346 1.2972 26.5095C2.03607 38.4848 11.8263 48.143 23.8174 48.7236C24.2713 48.7447 24.7199 48.75 25.1632 48.75C28.1662 48.7289 30.1032 45.5517 28.7785 42.8547L27.4538 40.1789C25.0102 35.2231 28.6201 29.4176 34.1459 29.4176H44.6592C46.8917 29.4176 48.7125 27.6231 48.7442 25.3907C48.7548 24.9262 48.7495 24.4565 48.7284 23.9815ZM15.4046 30.4573C14.9877 31.2437 14.291 31.8242 13.4413 32.0881C13.1141 32.1937 12.7816 32.2412 12.4491 32.2412C11.916 32.2412 11.3883 32.1145 10.9027 31.8612C10.1163 31.4442 9.53577 30.7528 9.27188 29.9031C8.72301 28.1456 9.70466 26.2773 11.4622 25.7284C11.7894 25.6229 12.1219 25.5754 12.4491 25.5754C13.8688 25.5754 15.1883 26.4937 15.6316 27.9187C15.8955 28.7684 15.8163 29.6709 15.4046 30.4573ZM18.6452 17.5268C18.0171 18.0598 17.2518 18.3184 16.4866 18.3184C15.5419 18.3184 14.6077 17.9226 13.948 17.1468C12.7605 15.7482 12.9294 13.6424 14.328 12.4496C15.7266 11.2621 17.8324 11.431 19.0252 12.8296C19.5582 13.4524 19.8168 14.2229 19.8168 14.9829C19.8168 15.9276 19.421 16.8671 18.6452 17.5268ZM33.8557 14.7349C33.4546 15.5318 32.7737 16.1229 31.9293 16.4079C31.581 16.5187 31.2273 16.5768 30.8684 16.5768C30.3618 16.5768 29.8551 16.4607 29.3854 16.2232C28.5885 15.8274 27.9973 15.1413 27.7124 14.2968C27.4326 13.4524 27.496 12.5499 27.8918 11.7582C28.2929 10.9613 28.9737 10.3649 29.8182 10.0852C30.6626 9.80018 31.5651 9.86876 32.3621 10.2646C33.159 10.6604 33.7501 11.3466 34.0351 12.191C34.3148 13.0354 34.2515 13.9379 33.8557 14.7349Z" fill="url(#paint0_linear_373_4086)"/>
<defs>
<linearGradient id="paint0_linear_373_4086" x1="1.71355" y1="1.572" x2="47.5145" y2="47.539" gradientUnits="userSpaceOnUse">
<stop offset="0.184358" stop-color="#29ABE2"/>
<stop offset="0.821198" stop-color="#6200D2"/>
</linearGradient>
</defs>
</svg>
