<svg width="50" height="50" viewBox="0 0 50 50" fill="none" xmlns="http://www.w3.org/2000/svg">
<path d="M25.0585 24.9998C25.0585 20.3975 28.7895 16.6665 33.3918 16.6665C37.9941 16.6665 41.7251 20.3976 41.7251 24.9998C41.7251 29.6022 37.9941 33.3331 33.3918 33.3331C28.7894 33.3331 25.0585 29.6021 25.0585 24.9998Z" fill="#00BCFF"/>
<path d="M8.39182 41.6667C8.39182 37.0644 12.1228 33.3334 16.7251 33.3334L21.166 30.9888L25.0584 33.3334V41.6667C25.0584 46.2691 21.3275 50 16.7251 50C12.1228 50 8.39182 46.269 8.39182 41.6667Z" fill="#00CF7F"/>
<path d="M25.0585 0L20.5239 7.87793L25.0585 16.6666H33.2749C37.8773 16.6666 41.6082 12.9356 41.6082 8.3333C41.6082 3.73096 37.8772 0 33.2749 0H25.0585Z" fill="#FF7361"/>
<path d="M8.27481 8.3333C8.27481 12.9356 12.0058 16.6666 16.6081 16.6666L21.0287 18.374L25.0583 16.6666V0H16.608C12.0058 0 8.27481 3.73096 8.27481 8.3333Z" fill="#FF4D12"/>
<path d="M8.39182 24.9999C8.39182 29.6023 12.1228 33.3332 16.7251 33.3332H25.0584V16.6665H16.7251C12.1228 16.6665 8.39182 20.3976 8.39182 24.9999Z" fill="#B659FF"/>
</svg>
