<svg width="54" height="54" viewBox="0 0 54 54" fill="none" xmlns="http://www.w3.org/2000/svg">
<g clip-path="url(#clip0_373_3603)">
<path d="M45.9881 20.9016C45.9881 20.9016 54.0001 29.1917 54.0001 41.8985C54.0001 41.8985 52.7604 42.3516 50.5308 42.8752C50.0398 42.9894 49.5019 43.1089 48.9184 43.2261C48.2622 43.3587 47.5484 43.4913 46.7812 43.6162C46.264 43.701 45.7219 43.7824 45.1569 43.8596C42.66 44.1975 39.7112 44.4442 36.4104 44.4442C32.2371 44.4442 28.6255 44.0509 25.781 43.5728C21.3893 42.8361 18.8208 41.8985 18.8208 41.8985C18.8208 29.1916 26.8328 20.9016 26.8328 20.9016V15.7188L22.5128 12.1714L18.8208 9.14001L25.8712 2.81969C26.735 2.04502 27.8008 1.6223 28.8841 1.54953C29.3893 1.51588 29.8967 1.55818 30.391 1.67662C31.1896 1.86783 31.9491 2.25796 32.5945 2.84458L33.3464 3.52907C35.0827 5.111 37.7381 5.111 39.4755 3.52907L40.2274 2.84458C40.8727 2.25785 41.6322 1.86783 42.4308 1.67662C43.9856 1.304 45.6839 1.68421 46.9496 2.81969L54.0001 9.14001L48.0394 14.0348L45.9881 15.7189V20.9016Z" fill="#5C6AC4"/>
<path d="M29.3046 11.9491V21.4049C29.3046 21.4049 26.0341 31.3401 26.0341 36.199C26.0341 38.133 25.919 40.9199 25.781 43.5732C21.3893 42.8365 18.8208 41.8989 18.8208 41.8989C18.8208 29.192 26.8328 20.9019 26.8328 20.9019V10.6626H28.0181C28.7286 10.6625 29.3046 11.2385 29.3046 11.9491Z" fill="#384598"/>
<path d="M28.8841 1.5498C26.4286 3.83689 23.5819 8.64912 22.5127 12.1717L18.8207 9.14029L25.8711 2.81996C26.7349 2.0453 27.8009 1.62268 28.8841 1.5498Z" fill="#384598"/>
<path d="M42.4308 1.677C42.1711 2.89938 40.1349 11.886 36.4104 13.1908C32.6859 11.886 30.6508 2.89928 30.3911 1.677C31.1897 1.86822 31.9492 2.25824 32.5946 2.84496L33.3465 3.52946C35.0828 5.11138 37.7382 5.11138 39.4756 3.52946L40.2274 2.84496C40.8727 2.25824 41.6322 1.86822 42.4308 1.677Z" fill="#384598"/>
<path d="M46.7813 43.6164C46.2641 43.7012 45.722 43.7826 45.157 43.8598C45.0831 40.5068 44.7376 37.1646 44.128 33.9203C44.0454 33.4781 44.3366 33.0522 44.7789 32.9696C45.2211 32.887 45.647 33.1772 45.7307 33.6205C46.3434 36.8853 46.6965 40.2438 46.7813 43.6164Z" fill="#384598"/>
<path d="M50.5308 42.8752C50.0398 42.9894 49.5019 43.1088 48.9184 43.2261C48.7664 40.662 48.4523 38.1032 47.9851 35.6161C47.9015 35.1739 48.1927 34.748 48.636 34.6644C49.0782 34.5818 49.5041 34.873 49.5867 35.3152C50.0506 37.7882 50.3679 40.3273 50.5308 42.8752Z" fill="#384598"/>
<path d="M48.0394 14.0347L45.988 15.7188V12.478C45.988 11.9635 46.6643 11.774 46.9317 12.2136L48.0394 14.0347Z" fill="#384598"/>
<path d="M36.4109 22.5491C33.164 22.5491 29.9173 22.2678 26.6932 21.705C26.2498 21.6277 25.9531 21.2055 26.0304 20.7621C26.1079 20.3188 26.5301 20.0219 26.9733 20.0995C33.2356 21.1924 39.586 21.1925 45.8483 20.0995C46.2911 20.022 46.7138 20.3187 46.7912 20.7621C46.8685 21.2055 46.572 21.6276 46.1285 21.705C42.9045 22.2678 39.6576 22.5491 36.4109 22.5491Z" fill="#FFD064"/>
<path d="M3.83212 34.5404C3.43651 34.5405 3.08952 34.2519 3.02771 33.8488C2.52864 30.5933 5.52659 28.3067 8.70056 25.8859C10.0479 24.8583 11.4743 23.7703 12.7169 22.5478C11.7145 21.9752 10.7727 21.3886 9.93507 20.7829C7.25701 18.8463 5.95521 16.9085 5.95521 14.8586C5.95521 11.6203 7.75451 10.2526 8.82712 9.72567C10.8282 8.74249 13.4531 9.0705 15.3592 10.5419C17.3698 12.094 18.1982 14.5808 17.6319 17.3648C17.2612 19.1866 16.4156 20.7405 15.3193 22.1133C16.441 22.7035 17.6095 23.2845 18.7697 23.8614C24.6698 26.7954 30.2428 29.5667 30.6451 33.6453C30.6893 34.0932 30.3621 34.4922 29.9141 34.5364C29.4656 34.5799 29.0673 34.2532 29.0231 33.8053C28.7092 30.6243 23.2874 27.9282 18.0439 25.3207C16.7597 24.6822 15.4559 24.0338 14.2072 23.3683C12.8209 24.7928 11.2081 26.0229 9.6888 27.1818C6.78978 29.3929 4.28606 31.3025 4.63854 33.6019C4.70678 34.0468 4.40144 34.4626 3.95658 34.5309C3.91492 34.5373 3.87315 34.5404 3.83212 34.5404ZM11.3264 10.797C10.6954 10.797 10.0823 10.9249 9.54579 11.1884C8.26297 11.8187 7.58491 13.0879 7.58491 14.8586C7.58491 17.2503 10.3321 19.3457 13.854 21.3194C14.9028 20.0598 15.7062 18.6549 16.0348 17.0399C16.634 14.0939 15.2448 12.5125 14.3633 11.8321C13.4854 11.1544 12.381 10.797 11.3264 10.797Z" fill="#407093"/>
<path d="M29.8342 33.182C21.1672 32.7294 12.5002 32.7294 3.83321 33.182C2.07199 33.274 0.625482 34.6099 0.401994 36.3593C-0.133998 40.5545 -0.133998 44.7497 0.401994 48.945C0.625482 50.6944 2.07188 52.0303 3.83321 52.1222C12.5002 52.5749 21.1672 52.5749 29.8342 52.1222C31.5954 52.0303 33.0419 50.6945 33.2654 48.945C33.8014 44.7497 33.8014 40.5545 33.2654 36.3593C33.0419 34.6099 31.5955 33.274 29.8342 33.182Z" fill="#FF6584"/>
<path d="M5.41409 52.1996C4.88717 52.1757 4.36014 52.1496 3.83322 52.1225C2.07199 52.0301 0.625806 50.6948 0.402001 48.9444C-0.133675 44.7494 -0.133675 40.5543 0.402001 36.3593C0.625806 34.6099 2.07199 33.2736 3.83322 33.1823C4.36014 33.1551 4.88717 33.1291 5.41409 33.1052C4.29612 33.6583 3.48338 34.7426 3.31716 36.0454C2.75427 40.4502 2.75427 44.8549 3.31716 49.2585C3.48338 50.5611 4.29612 51.6455 5.41409 52.1996Z" fill="#E23D5E"/>
<path d="M33.2649 41.9189C33.0418 43.6682 31.5954 45.0037 29.834 45.0953C21.1674 45.549 12.5008 45.549 3.83294 45.0953C2.07161 45.0037 0.625212 43.6682 0.401935 41.9189C0.284443 40.998 0.193212 40.077 0.125818 39.1561C-0.0362877 41.4404 -0.0398736 43.7247 0.115798 46.009C0.771603 47.003 1.8747 47.6683 3.1301 47.7336C12.2665 48.2117 21.4017 48.2117 30.5369 47.7336C31.7929 47.6683 32.8963 47.0023 33.552 46.0078C33.7077 43.7221 33.704 41.4366 33.5416 39.1511C33.4751 40.0738 33.3838 40.9964 33.2649 41.9189Z" fill="#E23D5E"/>
<path d="M21.2219 47.949C18.6026 48.0923 15.9833 48.0923 13.3639 47.949C12.2175 47.8862 11.3037 46.979 11.2114 45.8346C11.0848 44.264 11.0848 42.6934 11.2114 41.1227C11.3036 39.9784 12.2174 39.071 13.3638 39.0084C15.9831 38.865 18.6025 38.865 21.2218 39.0084C22.3682 39.0711 23.2821 39.9784 23.3742 41.1227C23.5008 42.6934 23.5008 44.264 23.3742 45.8346C23.2822 46.979 22.3683 47.8862 21.2219 47.949Z" fill="#FFD064"/>
<path d="M17.2929 45.161C16.221 45.161 15.1364 45.1355 14.0609 45.0852C13.9958 44.0168 13.9958 42.94 14.0609 41.8717C15.1364 41.8214 16.2211 41.7959 17.2929 41.7959C18.3646 41.7959 19.4493 41.8214 20.5248 41.8717C20.5898 42.9401 20.5898 44.0169 20.5248 45.0852C19.4493 45.1355 18.3646 45.161 17.2929 45.161Z" fill="#FF6584"/>
<path d="M17.293 45.9759C16.2107 45.9759 15.1104 45.9501 14.0228 45.8992C13.6071 45.8798 13.2729 45.5502 13.2475 45.1346C13.1807 44.0355 13.1807 42.9211 13.2475 41.8222C13.2729 41.4067 13.6071 41.0771 14.0228 41.0576C15.1113 41.0067 16.2115 40.981 17.293 40.981C18.3745 40.981 19.4745 41.0067 20.563 41.0576C20.9787 41.077 21.3129 41.4066 21.3383 41.8222C21.4051 42.9213 21.4051 44.0356 21.3383 45.1346C21.3129 45.5501 20.9787 45.8797 20.563 45.8992C19.4754 45.9501 18.3751 45.9759 17.293 45.9759ZM14.8402 44.3019C16.4779 44.3606 18.1075 44.3606 19.7455 44.3019C19.763 43.7536 19.763 43.2033 19.7455 42.6551C18.1067 42.5962 16.479 42.5962 14.8402 42.6551C14.8227 43.2033 14.8227 43.7536 14.8402 44.3019Z" fill="#FFC250"/>
</g>
<defs>
<clipPath id="clip0_373_3603">
<rect width="54" height="54" fill="white"/>
</clipPath>
</defs>
</svg>
