<svg width="54" height="54" viewBox="0 0 54 54" fill="none" xmlns="http://www.w3.org/2000/svg">
<path d="M19.4156 4.55054H17.5955V10.0112H19.4156V4.55054Z" fill="white"/>
<path d="M19.4156 11.2246H17.5955V13.6516H19.4156V11.2246Z" fill="white"/>
<path d="M8.79774 27.6067C8.79774 22.3037 11.3339 17.6197 15.2292 14.6224L22.1461 21.5393V2.12354H2.73034L9.62293 9.01613C4.30783 13.4575 0.910156 20.1195 0.910156 27.6067C0.910156 41.0157 11.7708 51.8763 25.1798 51.8763V43.9886C16.1272 43.9887 8.79774 36.6593 8.79774 27.6067Z" fill="#6D7EEA"/>
<path d="M4.55052 27.6067C4.55052 20.1195 7.9483 13.4574 13.2633 9.01613L6.3707 2.12354H2.73034L9.62293 9.01613C4.30783 13.4575 0.910156 20.1195 0.910156 27.6067C0.910156 41.0157 11.7708 51.8763 25.1798 51.8763V51.5612C13.5047 49.803 4.55052 39.774 4.55052 27.6067Z" fill="#5C6AC4"/>
<path d="M26.0899 52.7866H25.1798C18.4515 52.7866 12.1276 50.1681 7.373 45.4136C2.61837 40.659 0 34.3351 0 27.6069C0 20.4797 3.00892 13.7428 8.28932 8.9698L0.53325 1.21362H23.0562V23.7366L15.1648 15.8452C11.6868 18.8058 9.70787 23.0489 9.70787 27.6069C9.70787 36.1381 16.6486 43.0788 25.1798 43.0788H26.0899V52.7866ZM4.9275 3.0338L10.9701 9.07642L10.2065 9.71462C4.87688 14.1681 1.82018 20.6896 1.82018 27.6069C1.82018 33.8489 4.24934 39.7157 8.66014 44.1265C12.8559 48.3222 18.3692 50.7249 24.2696 50.9492V44.8754C15.1565 44.4001 7.88759 36.8363 7.88759 27.6069C7.88759 22.2155 10.3611 17.22 14.6741 13.9013L15.3075 13.4138L21.2359 19.3423V3.0338H4.9275Z" fill="#414141"/>
<path d="M19.4156 4.55054H17.5955V10.0112H19.4156V4.55054Z" fill="white"/>
<path d="M19.4156 11.2246H17.5955V13.6516H19.4156V11.2246Z" fill="white"/>
<path d="M36.4044 43.9888H34.5842V49.4494H36.4044V43.9888Z" fill="white"/>
<path d="M36.4044 40.3484H34.5842V42.7753H36.4044V40.3484Z" fill="white"/>
<path d="M45.2022 26.3932C45.2022 31.6961 42.666 36.3801 38.7707 39.3774L31.8539 32.4606V51.8763H51.2696L44.377 44.9837C49.6921 40.5423 53.0898 33.8804 53.0898 26.3932C53.0898 12.9842 42.2292 2.12354 28.8202 2.12354V10.0112C37.8728 10.0111 45.2022 17.3406 45.2022 26.3932Z" fill="#6D7EEA"/>
<path d="M49.4495 26.3932C49.4495 33.8804 46.0517 40.5424 40.7367 44.9837L47.6293 51.8763H51.2698L44.3772 44.9837C49.6923 40.5423 53.0899 33.8804 53.0899 26.3932C53.0899 12.9842 42.2293 2.12354 28.8203 2.12354V2.43868C40.4953 4.19684 49.4495 14.2259 49.4495 26.3932Z" fill="#5C6AC4"/>
<path d="M53.4667 52.7866H30.9437V30.2636L38.8351 38.155C42.3132 35.1944 44.2921 30.9513 44.2921 26.3933C44.2921 17.8621 37.3514 10.9214 28.8201 10.9214H27.91V1.21362H28.8201C35.5484 1.21362 41.8723 3.8321 46.6269 8.58663C51.3816 13.3412 53.9999 19.6651 53.9999 26.3933C53.9999 33.5205 50.991 40.2574 45.7106 45.0304L53.4667 52.7866ZM32.764 50.9664H49.0724L43.0298 44.9238L43.7934 44.2856C49.1231 39.8321 52.1797 33.3106 52.1797 26.3933C52.1797 20.1513 49.7505 14.2845 45.3397 9.87366C41.144 5.67801 35.6307 3.27533 29.7302 3.05099V9.12483C38.8435 9.60018 46.1123 17.1639 46.1123 26.3933C46.1123 31.7847 43.6386 36.7802 39.3257 40.0989L38.6922 40.5864L32.764 34.6579V50.9664Z" fill="#414141"/>
<path d="M36.4044 43.9888H34.5842V49.4494H36.4044V43.9888Z" fill="white"/>
<path d="M36.4044 40.3484H34.5842V42.7753H36.4044V40.3484Z" fill="white"/>
</svg>
