<svg width="54" height="54" viewBox="0 0 54 54" fill="none" xmlns="http://www.w3.org/2000/svg">
<path d="M20.7 4.5C20.7 8.478 23.922 11.7 27.9 11.7C23.922 11.7 20.7 14.922 20.7 18.9C20.7 14.922 17.478 11.7 13.5 11.7C17.478 11.7 20.7 8.478 20.7 4.5Z" fill="#5C6AC4" fill-opacity="0.1"/>
<path d="M9.89999 20.7C9.89999 22.68 11.502 24.3 13.5 24.3C11.502 24.3 9.89999 25.92 9.89999 27.9C9.89999 25.92 8.27999 24.3 6.29999 24.3C8.27999 24.3 9.89999 22.68 9.89999 20.7Z" fill="#5C6AC4" fill-opacity="0.1"/>
<path d="M31.5 40.5C31.5 42.48 33.102 44.1 35.1 44.1C33.102 44.1 31.5 45.72 31.5 47.7C31.5 45.72 29.88 44.1 27.9 44.1C29.88 44.1 31.5 42.48 31.5 40.5Z" fill="#5C6AC4" fill-opacity="0.1"/>
<path d="M42.3 26.1001C42.3 30.0781 45.522 33.3001 49.5 33.3001C45.522 33.3001 42.3 36.5221 42.3 40.5001C42.3 36.5221 39.078 33.3001 35.1 33.3001C39.078 33.3001 42.3 30.0781 42.3 26.1001Z" fill="#5C6AC4" fill-opacity="0.1"/>
<path d="M40.482 18.8821L9.882 49.5001L4.5 44.1181L35.118 13.5181L40.482 18.8821Z" fill="#5C6AC4"/>
<path d="M35.118 13.5181L39.438 9.1981C40.122 8.4961 41.04 8.1001 41.94 8.1001C42.948 8.1001 43.974 8.4241 44.748 9.1981L44.784 9.2521C45.504 9.9541 45.9 10.9081 45.9 11.8981C45.9 12.9061 45.504 13.8601 44.802 14.5621L40.482 18.8821L9.882 49.5001L4.5 44.1181L35.118 13.5181Z" stroke="#5C6AC4" stroke-miterlimit="10" stroke-linecap="round" stroke-linejoin="round"/>
<path d="M40.482 18.8821L35.118 13.5181" stroke="#5C6AC4" stroke-miterlimit="10" stroke-linecap="round" stroke-linejoin="round"/>
<path d="M13.5 11.7C17.478 11.7 20.7 8.478 20.7 4.5C20.7 8.478 23.922 11.7 27.9 11.7C23.922 11.7 20.7 14.922 20.7 18.9C20.7 14.922 17.478 11.7 13.5 11.7Z" stroke="#5C6AC4" stroke-miterlimit="10" stroke-linecap="round" stroke-linejoin="round"/>
<path d="M6.29999 24.3C8.27999 24.3 9.89999 22.68 9.89999 20.7C9.89999 22.68 11.502 24.3 13.5 24.3C11.502 24.3 9.89999 25.92 9.89999 27.9C9.89999 25.92 8.27999 24.3 6.29999 24.3Z" stroke="#5C6AC4" stroke-miterlimit="10" stroke-linecap="round" stroke-linejoin="round"/>
<path d="M35.1 33.3001C39.078 33.3001 42.3 30.0781 42.3 26.1001C42.3 30.0781 45.522 33.3001 49.5 33.3001C45.522 33.3001 42.3 36.5221 42.3 40.5001C42.3 36.5221 39.078 33.3001 35.1 33.3001Z" stroke="#5C6AC4" stroke-miterlimit="10" stroke-linecap="round" stroke-linejoin="round"/>
<path d="M27.9 44.1C29.88 44.1 31.5 42.48 31.5 40.5C31.5 42.48 33.102 44.1 35.1 44.1C33.102 44.1 31.5 45.72 31.5 47.7C31.5 45.72 29.88 44.1 27.9 44.1Z" stroke="#5C6AC4" stroke-miterlimit="10" stroke-linecap="round" stroke-linejoin="round"/>
</svg>
