<svg width="54" height="54" viewBox="0 0 54 54" fill="none" xmlns="http://www.w3.org/2000/svg">
<path d="M45.9844 39.9199C47.4406 39.9199 48.6211 38.7394 48.6211 37.2832C48.6211 35.827 47.4406 34.6465 45.9844 34.6465C44.5282 34.6465 43.3477 35.827 43.3477 37.2832C43.3477 38.7394 44.5282 39.9199 45.9844 39.9199Z" fill="#8BF2CF"/>
<path d="M8.01562 16.1895C10.0543 16.1895 11.707 14.5368 11.707 12.498C11.707 10.4593 10.0543 8.80664 8.01562 8.80664C5.97692 8.80664 4.32422 10.4593 4.32422 12.498C4.32422 14.5368 5.97692 16.1895 8.01562 16.1895Z" fill="#8BF2CF"/>
<path d="M32.6499 38.5973L17.7346 23.682C17.7456 23.6709 33.5337 7.88179 33.5443 7.87113C35.1095 6.30598 37.6471 6.30598 39.2122 7.87113L48.4597 17.1186C50.0249 18.6838 50.0249 21.2214 48.4597 22.7865C48.4478 22.7985 32.6613 38.5861 32.6499 38.5973Z" fill="#CCDDFF"/>
<path d="M32.65 38.5973L24.9982 46.248H11.2155L6.02543 41.0579C4.46027 39.4927 4.46027 36.9551 6.02543 35.39L17.7346 23.6819L32.65 38.5973Z" fill="#E6F2FF"/>
<path d="M49.4121 30.4277C49.849 30.4277 50.2031 30.0736 50.2031 29.6367C50.2031 29.1999 49.849 28.8457 49.4121 28.8457C48.9752 28.8457 48.6211 29.1999 48.6211 29.6367C48.6211 30.0736 48.9752 30.4277 49.4121 30.4277Z" fill="black"/>
<path d="M46.7754 8.2793C47.2123 8.2793 47.5664 7.92515 47.5664 7.48828C47.5664 7.05142 47.2123 6.69727 46.7754 6.69727C46.3385 6.69727 45.9844 7.05142 45.9844 7.48828C45.9844 7.92515 46.3385 8.2793 46.7754 8.2793Z" fill="black"/>
<path d="M37.8105 43.084C38.2474 43.084 38.6016 42.7298 38.6016 42.293C38.6016 41.8561 38.2474 41.502 37.8105 41.502C37.3737 41.502 37.0195 41.8561 37.0195 42.293C37.0195 42.7298 37.3737 43.084 37.8105 43.084Z" fill="black"/>
<path d="M26.7363 8.80664C27.1732 8.80664 27.5273 8.45249 27.5273 8.01562C27.5273 7.57876 27.1732 7.22461 26.7363 7.22461C26.2995 7.22461 25.9453 7.57876 25.9453 8.01562C25.9453 8.45249 26.2995 8.80664 26.7363 8.80664Z" fill="black"/>
<path d="M13.5527 6.16992C13.9896 6.16992 14.3438 5.81577 14.3438 5.37891C14.3438 4.94204 13.9896 4.58789 13.5527 4.58789C13.1159 4.58789 12.7617 4.94204 12.7617 5.37891C12.7617 5.81577 13.1159 6.16992 13.5527 6.16992Z" fill="black"/>
<path d="M7.75195 24.0996C8.18882 24.0996 8.54297 23.7455 8.54297 23.3086C8.54297 22.8717 8.18882 22.5176 7.75195 22.5176C7.31509 22.5176 6.96094 22.8717 6.96094 23.3086C6.96094 23.7455 7.31509 24.0996 7.75195 24.0996Z" fill="black"/>
<path d="M26.0466 23.5723C25.9117 23.5723 25.7767 23.5208 25.6737 23.4179L21.8356 19.5799C21.6297 19.3739 21.6297 19.04 21.8356 18.8341C22.0416 18.6282 22.3755 18.6282 22.5814 18.8341L26.4195 22.6721C26.6255 22.8781 26.6255 23.212 26.4195 23.4179C26.3166 23.5208 26.1816 23.5723 26.0466 23.5723Z" fill="black"/>
<path d="M32.65 39.1248C32.515 39.1248 32.3801 39.0733 32.277 38.9702L17.3616 24.055C17.1557 23.849 17.1557 23.5151 17.3616 23.3092C17.5676 23.1033 17.9015 23.1033 18.1075 23.3092L33.0228 38.2246C33.2288 38.4305 33.2288 38.7644 33.0228 38.9702C32.9198 39.0733 32.785 39.1248 32.65 39.1248Z" fill="black"/>
<path d="M37.1241 34.6496C36.9891 34.6496 36.8542 34.5982 36.7511 34.4951L28.8378 26.5818C28.6318 26.3758 28.6318 26.0419 28.8378 25.836C29.0438 25.6302 29.3776 25.6302 29.5836 25.836L37.4969 33.7495C37.7029 33.9553 37.7029 34.2893 37.4969 34.4951C37.394 34.5982 37.2591 34.6496 37.1241 34.6496Z" fill="black"/>
<path d="M11.2155 46.7754C11.0805 46.7754 10.9456 46.7239 10.8426 46.6208L5.65248 41.4307C3.88419 39.6624 3.88419 36.7854 5.65248 35.0171L17.3617 23.309L21.8356 18.8339L33.1714 7.49805C34.9398 5.72976 37.8169 5.72987 39.5852 7.49805L48.8327 16.7456C50.6009 18.5138 50.6009 21.3909 48.8327 23.1592L37.497 34.495L33.023 38.97L25.3711 46.6208C25.1653 46.8267 24.8312 46.8267 24.6254 46.6207C24.4195 46.4149 24.4195 46.0809 24.6255 45.875L32.2772 38.2243L48.0869 22.4134C49.4439 21.0564 49.4439 18.8484 48.0869 17.4913L38.8394 8.24382C37.4825 6.88686 35.2743 6.88686 33.9173 8.24382L22.5815 19.5796L18.1076 24.0546L6.39836 35.7629C5.04139 37.1199 5.04139 39.328 6.39836 40.6851L11.5885 45.8752C11.7945 46.0811 11.7945 46.415 11.5885 46.6208C11.4854 46.7239 11.3505 46.7754 11.2155 46.7754Z" fill="black"/>
<path d="M41.4809 46.7754H6.67618C6.38498 46.7754 6.14883 46.5394 6.14883 46.248C6.14883 45.9567 6.38498 45.7207 6.67618 45.7207H41.4809C41.7722 45.7207 42.0082 45.9567 42.0082 46.248C42.0082 46.5394 41.7721 46.7754 41.4809 46.7754Z" fill="black"/>
<path d="M42.5356 49.4121H29.352C29.0608 49.4121 28.8246 49.1761 28.8246 48.8848C28.8246 48.5935 29.0608 48.3574 29.352 48.3574H42.5356C42.8269 48.3574 43.0629 48.5935 43.0629 48.8848C43.0629 49.1761 42.8268 49.4121 42.5356 49.4121Z" fill="black"/>
<path d="M47.2816 49.4121H45.1723C44.8811 49.4121 44.6449 49.1761 44.6449 48.8848C44.6449 48.5935 44.8811 48.3574 45.1723 48.3574H47.2816C47.573 48.3574 47.809 48.5935 47.809 48.8848C47.809 49.1761 47.5728 49.4121 47.2816 49.4121Z" fill="black"/>
<path d="M45.9844 40.4473C44.2397 40.4473 42.8203 39.0279 42.8203 37.2832C42.8203 35.5385 44.2397 34.1191 45.9844 34.1191C47.729 34.1191 49.1484 35.5385 49.1484 37.2832C49.1484 39.0279 47.729 40.4473 45.9844 40.4473ZM45.9844 35.1738C44.8214 35.1738 43.875 36.1201 43.875 37.2832C43.875 38.4463 44.8214 39.3926 45.9844 39.3926C47.1475 39.3926 48.0938 38.4463 48.0938 37.2832C48.0938 36.1201 47.1475 35.1738 45.9844 35.1738Z" fill="black"/>
<path d="M8.01562 16.7168C5.68941 16.7168 3.79688 14.8243 3.79688 12.498C3.79688 10.1718 5.68941 8.2793 8.01562 8.2793C10.3419 8.2793 12.2344 10.1718 12.2344 12.498C12.2344 14.8243 10.3419 16.7168 8.01562 16.7168ZM8.01562 9.33398C6.27096 9.33398 4.85156 10.7534 4.85156 12.498C4.85156 14.2427 6.27096 15.6621 8.01562 15.6621C9.76029 15.6621 11.1797 14.2427 11.1797 12.498C11.1797 10.7534 9.76029 9.33398 8.01562 9.33398Z" fill="black"/>
</svg>
