<svg width="50" height="50" viewBox="0 0 50 50" fill="none" xmlns="http://www.w3.org/2000/svg">
<path d="M45.625 7.88301V34.6252C45.6211 36.3574 45.0718 38.0443 44.0552 39.4468C43.0385 40.8492 41.606 41.896 39.961 42.4385C38.316 42.981 36.5419 42.9918 34.8904 42.4692C33.2389 41.9467 31.7939 40.9174 30.7603 39.5274C29.7267 38.1374 29.157 36.4572 29.132 34.7252C29.1071 32.9932 29.6281 31.2973 30.6213 29.8781C31.6144 28.4589 33.0292 27.3885 34.665 26.8186C36.3007 26.2488 38.0744 26.2084 39.7344 26.7033V16.9455C39.7347 16.7141 39.6848 16.4854 39.5879 16.2752C39.4911 16.065 39.3497 15.8783 39.1736 15.7282C38.9975 15.5781 38.7908 15.4681 38.5679 15.4058C38.345 15.3435 38.1113 15.3304 37.8828 15.3674L22.25 17.8518C21.8734 17.9101 21.5301 18.1013 21.2822 18.3907C21.0343 18.6802 20.8982 19.0488 20.8984 19.4299V38.6174C20.8966 40.3447 20.353 42.0279 19.3443 43.4301C18.3356 44.8323 16.9125 45.8828 15.2754 46.4338C13.6383 46.9847 11.8696 47.0084 10.2184 46.5014C8.56715 45.9944 7.11649 44.9824 6.07064 43.6076C5.02478 42.2329 4.4364 40.5648 4.38833 38.8382C4.34026 37.1115 4.83492 35.4133 5.80267 33.9825C6.77042 32.5518 8.16253 31.4605 9.78301 30.8625C11.4035 30.2644 13.1707 30.1896 14.8359 30.6486V11.5315C14.8345 10.4098 15.231 9.32397 15.9548 8.46711C16.6787 7.61025 17.6829 7.03787 18.7891 6.85176L40.0547 3.19551C40.738 3.07741 41.4389 3.11005 42.1083 3.29113C42.7776 3.47222 43.3994 3.79738 43.9299 4.24387C44.4605 4.69036 44.8871 5.24739 45.1799 5.87599C45.4727 6.50459 45.6246 7.18957 45.625 7.88301Z" fill="url(#paint0_linear_373_4074)"/>
<defs>
<linearGradient id="paint0_linear_373_4074" x1="4.375" y1="25.0002" x2="45.625" y2="25.0002" gradientUnits="userSpaceOnUse">
<stop stop-color="#FFA68D"/>
<stop offset="1" stop-color="#FD3A84"/>
</linearGradient>
</defs>
</svg>
