<svg width="50" height="50" viewBox="0 0 50 50" fill="none" xmlns="http://www.w3.org/2000/svg">
<g clip-path="url(#clip0_373_4006)">
<path d="M8.8542 0.625H41.1459C46.0417 0.625 50 4.5833 50 9.4792V40.5209C50 45.4167 46.0417 49.3751 41.1458 49.3751H8.8542C3.9583 49.375 0 45.4167 0 40.5208V9.4792C0 4.5833 3.9583 0.625 8.8542 0.625Z" fill="#001834"/>
<path d="M11.25 34.8127V13.3752C11.25 13.2294 11.3125 13.146 11.4583 13.146C11.8125 13.146 12.1458 13.146 12.625 13.1252C13.125 13.1044 13.6458 13.1044 14.2083 13.0835C14.7708 13.0626 15.375 13.0627 16.0208 13.0418C16.6666 13.021 17.2916 13.021 17.9166 13.021C19.6249 13.021 21.0416 13.2293 22.2083 13.6668C23.25 14.021 24.2083 14.6043 25 15.3751C25.6667 16.0418 26.1875 16.8543 26.5208 17.7501C26.8333 18.6251 27 19.5209 27 20.4584C27 22.2501 26.5833 23.7292 25.75 24.8959C24.9167 26.0626 23.75 26.9376 22.3958 27.4376C20.9791 27.9584 19.4166 28.1459 17.7083 28.1459C17.2083 28.1459 16.875 28.1459 16.6666 28.1251C16.4583 28.1043 16.1666 28.1043 15.7708 28.1043V34.7918C15.7916 34.9376 15.6875 35.0626 15.5416 35.0835C15.5208 35.0835 15.4999 35.0835 15.4583 35.0835H11.5C11.3333 35.0835 11.25 35.0002 11.25 34.8127ZM15.7917 17.1669V24.1669C16.0834 24.1877 16.3542 24.2086 16.6042 24.2086H17.7084C19.147 24.2086 20.8084 23.8705 21.8125 22.7295C22.6767 21.7475 22.6791 19.8 21.9792 18.7295C21.1483 17.4587 19.4868 17.0905 18.0625 17.1253C17.5208 17.1253 17.0417 17.1253 16.6458 17.1461C16.2292 17.1252 15.9375 17.146 15.7917 17.1669Z" fill="#00A9FF"/>
<path d="M40 22.8958C39.375 22.5625 38.7083 22.3333 38 22.1875C37.2292 22.0208 36.4583 21.9167 35.6667 21.9167C35.25 21.8959 34.8125 21.9584 34.4167 22.0625C34.1459 22.125 33.9167 22.2708 33.7709 22.4792C33.6667 22.6459 33.6042 22.8542 33.6042 23.0417C33.6042 23.2292 33.6875 23.4167 33.8125 23.5834C34 23.8126 34.25 24.0001 34.5208 24.1459C35 24.3959 35.5 24.6251 36 24.8334C37.125 25.2084 38.2083 25.7292 39.2083 26.3542C39.8958 26.7917 40.4583 27.375 40.8541 28.0834C41.1874 28.7501 41.3541 29.4792 41.3333 30.2292C41.3541 31.2084 41.0625 32.1875 40.5208 33C39.9375 33.8333 39.125 34.4792 38.1875 34.8542C37.1667 35.2917 35.9167 35.5209 34.4167 35.5209C33.4584 35.5209 32.5209 35.4376 31.5834 35.2501C30.8542 35.1251 30.1251 34.8959 29.4584 34.5834C29.3126 34.5001 29.2084 34.3542 29.2292 34.1876V30.5626C29.2292 30.5001 29.25 30.4168 29.3125 30.3751C29.375 30.3334 29.4375 30.3543 29.5 30.3959C30.3125 30.8751 31.1667 31.2084 32.0833 31.4167C32.875 31.625 33.7083 31.7292 34.5416 31.7292C35.3333 31.7292 35.8958 31.625 36.2708 31.4375C36.6041 31.2917 36.8333 30.9375 36.8333 30.5625C36.8333 30.2708 36.6666 30 36.3333 29.7292C36 29.4584 35.3125 29.1459 34.2916 28.75C33.2291 28.375 32.2499 27.875 31.3333 27.25C30.6875 26.7917 30.1458 26.1875 29.75 25.4792C29.4167 24.8125 29.25 24.0834 29.2708 23.3542C29.2708 22.4584 29.5208 21.6042 29.9791 20.8334C30.4999 20.0001 31.2708 19.3334 32.1666 18.9167C33.1458 18.4167 34.3749 18.1875 35.8541 18.1875C36.7083 18.1875 37.5833 18.25 38.4374 18.375C39.0624 18.4583 39.6666 18.625 40.2291 18.8542C40.3124 18.875 40.3958 18.9584 40.4374 19.0417C40.4582 19.125 40.4791 19.2084 40.4791 19.2917V22.6875C40.4791 22.7708 40.4374 22.8542 40.3749 22.8958C40.1875 22.9375 40.0833 22.9375 40 22.8958Z" fill="#00A9FF"/>
</g>
<defs>
<clipPath id="clip0_373_4006">
<rect width="50" height="50" fill="white"/>
</clipPath>
</defs>
</svg>
