<svg width="50" height="50" viewBox="0 0 50 50" fill="none" xmlns="http://www.w3.org/2000/svg">
<g clip-path="url(#clip0_373_4132)">
<path d="M25 50C38.8071 50 50 38.8071 50 25C50 11.1929 38.8071 0 25 0C11.1929 0 0 11.1929 0 25C0 38.8071 11.1929 50 25 50Z" fill="#12C64B"/>
<path d="M34.0313 34.2416C33.8332 34.58 33.509 34.826 33.1298 34.9256C32.7506 35.0252 32.3473 34.9703 32.0085 34.7729C28.1193 32.5001 23.6279 32.1365 20.5426 32.216C18.5385 32.2673 16.5455 32.5302 14.5966 33.0001C14.2338 33.0644 13.86 32.9909 13.5485 32.7942C13.2369 32.5975 13.0099 32.2916 12.9119 31.9365C12.8138 31.5813 12.8518 31.2023 13.0184 30.8736C13.1849 30.5449 13.4681 30.2902 13.8125 30.1592C15.9596 29.6255 18.1578 29.3246 20.3693 29.2615C22.4858 29.1834 24.6044 29.3367 26.6875 29.7189C29.0857 30.153 31.3918 30.9947 33.5057 32.2075C33.6746 32.3058 33.8223 32.4366 33.9403 32.5923C34.0583 32.7481 34.1442 32.9257 34.1931 33.1148C34.242 33.304 34.2529 33.501 34.2251 33.6944C34.1973 33.8878 34.1314 34.0738 34.0313 34.2416Z" fill="white"/>
<path d="M36.7813 28.5287C36.6271 28.7935 36.4061 29.0132 36.1404 29.1657C35.8746 29.3183 35.5735 29.3984 35.2671 29.3981C34.9562 29.3985 34.651 29.3151 34.3836 29.1566C29.7785 26.4662 24.4603 26.0316 20.804 26.1452C18.4303 26.2052 16.0695 26.5166 13.7614 27.0742C13.3199 27.1781 12.8553 27.1069 12.4652 26.8754C12.0751 26.6439 11.79 26.2702 11.6697 25.8328C11.5494 25.3954 11.6034 24.9285 11.8202 24.5301C12.037 24.1317 12.3999 23.8328 12.8324 23.6964C15.376 23.0669 17.9801 22.7145 20.5995 22.6452C23.1071 22.5487 25.6178 22.7307 28.0853 23.1878C30.9235 23.7024 33.6524 24.6998 36.1535 26.1367C36.5531 26.3714 36.8435 26.7549 36.9611 27.2031C37.0788 27.6514 37.0141 28.128 36.7813 28.5287Z" fill="white"/>
<path d="M40.3409 22.2701C40.1988 22.5141 40.0099 22.7277 39.7851 22.8986C39.5602 23.0694 39.3039 23.1942 39.0307 23.2658C38.7575 23.3373 38.4728 23.3542 38.1931 23.3154C37.9134 23.2767 37.6441 23.1831 37.4006 23.04C26.4517 16.6423 12.25 20.4462 12.1165 20.4832C11.8405 20.5706 11.5497 20.6014 11.2615 20.5737C10.9733 20.546 10.6937 20.4605 10.4394 20.3221C10.1851 20.1838 9.96133 19.9955 9.78154 19.7686C9.60174 19.5417 9.46961 19.2808 9.39306 19.0016C9.31652 18.7224 9.29713 18.4306 9.33607 18.1437C9.37501 17.8569 9.47147 17.5808 9.61966 17.3321C9.76786 17.0834 9.96475 16.8672 10.1985 16.6964C10.4323 16.5257 10.6981 16.4038 10.9801 16.3383C14.0925 15.5712 17.2785 15.1416 20.483 15.057C23.5577 14.9424 26.6358 15.1654 29.662 15.7218C33.1421 16.3476 36.4896 17.564 39.5597 19.3184C39.8056 19.4601 40.0211 19.6491 40.1936 19.8745C40.3662 20.0998 40.4924 20.3571 40.565 20.6315C40.6377 20.9059 40.6553 21.192 40.6168 21.4732C40.5783 21.7545 40.4846 22.0253 40.3409 22.2701Z" fill="white"/>
</g>
<defs>
<clipPath id="clip0_373_4132">
<rect width="50" height="50" fill="white"/>
</clipPath>
</defs>
</svg>
