<svg id="svg29881" height="512" width="512" xmlns="http://www.w3.org/2000/svg" xmlns:xlink="http://www.w3.org/1999/xlink" xmlns:cc="http://creativecommons.org/ns#" xmlns:dc="http://purl.org/dc/elements/1.1/" xmlns:inkscape="http://www.inkscape.org/namespaces/inkscape" xmlns:rdf="http://www.w3.org/1999/02/22-rdf-syntax-ns#" xmlns:sodipodi="http://sodipodi.sourceforge.net/DTD/sodipodi-0.dtd" xmlns:svg="http://www.w3.org/2000/svg"><clipPath id="clipPath29920"><path id="path29922" d="m-254.28571 506.64789a260 248.57143 0 1 1 -520 0 260 248.57143 0 1 1 520 0z" transform="matrix(.685 0 0 .716 705.099 116.389)"/></clipPath><clipPath id="clipPath3045"><path id="path3047" d="m-188.57141-53.714287a252.85715 254.28572 0 1 1 -505.7143 0 252.85715 254.28572 0 1 1 505.7143 0z" transform="matrix(.949 0 0 .944 674.983 847.059)"/></clipPath><clipPath id="clipPath3513"><path id="path3515" d="m-466.69048 13.994795a104.04572 104.04572 0 1 1 -208.09145 0 104.04572 104.04572 0 1 1 208.09145 0z" transform="matrix(1.336 0 0 1.336 -106.34 494.851)"/></clipPath><clipPath id="clipPath3603"><path id="path3605" d="m-466.69048 13.994795a104.04572 104.04572 0 1 1 -208.09145 0 104.04572 104.04572 0 1 1 208.09145 0z" transform="matrix(2.307 0 0 2.307 881.533 384.84)"/></clipPath><g id="layer1" transform="translate(0 -540.362)"><g id="g3721" transform="translate(690.972 378.6)"><g id="g29962" fill="#fff" transform="translate(-246.857 429.714)"><g id="g29913" clip-path="url(#clipPath29920)" fill="#fff" transform="matrix(1.348 0 0 1.348 27.194 -279.408)"/></g><g id="g3239" clip-path="url(#clipPath3513)" transform="matrix(1.727 0 0 1.727 1065.2 -468.571)"><path id="path18829" d="m-1077.0126 588.35936h416.8823v-21.38956h-416.8823z" fill="#fff"/><path id="path18831" d="m-1077.0126 566.96913h416.8823v-21.38139h-416.8823z" fill="#ca4638"/><path id="path18833" d="m-1077.0126 631.10647h416.8823v-21.3814h-416.8823z" fill="#fff"/><path id="path18835" d="m-1077.0126 652.49669h416.8823v-21.38956h-416.8823z" fill="#ca4638"/><path id="path18837" d="m-1077.0126 609.72457h416.8823v-21.36521h-416.8823z" fill="#ca4638"/><path id="path18839" d="m-1077.0126 544.57926h416.8823v-21.36522h-416.8823z" fill="#fff"/><path id="path18841" d="m-1077.0126 481.45207h416.8823v-21.36521h-416.8823z" fill="#ca4638"/><path id="path18843" d="m-1077.0126 417.31674h416.8823v-21.38956h-416.8823z" fill="#fff"/><g fill="#ca4638"><path id="path18845" d="m-1077.0126 438.69663h416.8823v-21.38156h-416.8823z"/><path id="path18847" d="m-1077.0126 524.22419h416.8823v-21.4059h-416.8823z"/><path id="path18849" d="m-1077.0126 395.92651h416.8823v-21.34087h-416.8823z"/></g><path id="path18851" d="m-1077.0126 460.08686h416.8823v-21.38973h-416.8823z" fill="#fff"/><path id="path18853" d="m-1077.0126 502.81729h416.8823v-21.36522h-416.8823z" fill="#fff"/></g><path id="path3517" clip-path="url(#clipPath3603)" d="m-674.97189 436.92193h240v-259.8008h-240z" fill="#356ba0"/><g fill="#fff"><path id="path18857" d="m-491.34675 211.87268 1.79508 5.57678h5.85565l-4.74029 3.44447 1.83442 5.57677-4.7436-3.44789-4.77964 3.44789 1.83442-5.57677-4.74045-3.44447h5.85581l1.82907-5.57678"/><path id="path18859" d="m-491.34675 260.84986 1.79508 5.57336h5.85565l-4.74029 3.44789 1.83442 5.57336-4.7436-3.40826-4.77964 3.40826 1.83442-5.57336-4.74045-3.44789h5.85581l1.82907-5.57336"/><path id="path18861" d="m-491.34675 309.85328 1.79508 5.58648h5.85565l-4.74029 3.43477 1.83442 5.58648-4.7436-3.44762-4.77964 3.44762 1.83442-5.58648-4.74045-3.43477h5.85581l1.82907-5.58648"/><path id="path18863" d="m-491.34675 359.9424 1.79508 5.613h5.85565l-4.74029 3.44762 1.83442 5.61299-4.7436-3.48725-4.77964 3.48725 1.83442-5.61299-4.74045-3.44762h5.85581l1.82907-5.613"/><path id="path18865" d="m-491.34675 407.80424 1.79508 5.58673h5.85565l-4.74029 3.47388 1.83442 5.57362-4.7436-3.47414-4.77964 3.47414 1.83442-5.57362-4.74045-3.47388h5.85581l1.82907-5.58673"/><path id="path18867" d="m-535.28514 211.87268 1.80814 5.57678h5.88209l-4.75682 3.44447 1.8083 5.57677-4.74014-3.44789-4.75352 3.44789 1.80295-5.57677-4.74014-3.44447h5.88178l1.80814-5.57678"/><path id="path18869" d="m-535.28514 260.84986 1.80814 5.57336h5.88209l-4.75682 3.44789 1.8083 5.57336-4.74014-3.40826-4.75352 3.40826 1.80295-5.57336-4.74014-3.44789h5.88178l1.80814-5.57336"/><path id="path18871" d="m-535.28514 309.85328 1.80814 5.58648h5.88209l-4.75682 3.43477 1.8083 5.58648-4.74014-3.44762-4.75352 3.44762 1.80295-5.58648-4.74014-3.43477h5.88178l1.80814-5.58648"/><path id="path18873" d="m-535.28514 359.9424 1.80814 5.613h5.88209l-4.75682 3.44762 1.8083 5.61299-4.74014-3.48725-4.75352 3.48725 1.80295-5.61299-4.74014-3.44762h5.88178l1.80814-5.613"/><path id="path18875" d="m-535.28514 407.80424 1.80814 5.58673h5.88209l-4.75682 3.47388 1.8083 5.57362-4.74014-3.47414-4.75352 3.47414 1.80295-5.57362-4.74014-3.47388h5.88178l1.80814-5.58673"/><path id="path18879" d="m-579.1875 260.84986 1.79492 5.57336h5.8555l-4.74014 3.44789 1.82923 5.57336-4.7403-3.40826-4.77964 3.40826 1.83458-5.57336-4.7436-3.44789h5.84574l1.84229-5.57336"/><path id="path18881" d="m-579.1875 309.85328 1.79492 5.58648h5.8555l-4.74014 3.43477 1.82923 5.58648-4.7403-3.44762-4.77964 3.44762 1.83458-5.58648-4.7436-3.43477h5.84574l1.84229-5.58648"/><path id="path18883" d="m-579.1875 359.9424 1.79492 5.613h5.8555l-4.74014 3.44762 1.82923 5.61299-4.7403-3.48725-4.77964 3.48725 1.83458-5.61299-4.7436-3.44762h5.84574l1.84229-5.613"/><path id="path18885" d="m-579.1875 407.80424 1.79492 5.58673h5.8555l-4.74014 3.47388 1.82923 5.57362-4.7403-3.47414-4.77964 3.47414 1.83458-5.57362-4.7436-3.47388h5.84574l1.84229-5.58673"/><path id="path18891" d="m-623.13912 309.85328 1.80563 5.58648h5.88193l-4.74045 3.43477 1.8083 5.58648-4.75352-3.44762-4.7436 3.44762 1.80814-5.58648-4.75336-3.43477h5.85566l1.83442-5.58648"/><path id="path18893" d="m-623.13912 359.9424 1.80563 5.613h5.88193l-4.74045 3.44762 1.8083 5.61299-4.75352-3.48725-4.7436 3.48725 1.80814-5.61299-4.75336-3.44762h5.85566l1.83442-5.613"/><path id="path18895" d="m-623.13912 407.80424 1.80563 5.58673h5.88193l-4.74045 3.47388 1.8083 5.57362-4.75352-3.47414-4.7436 3.47414 1.80814-5.57362-4.75336-3.47388h5.85566l1.83442-5.58673"/><path id="path18907" d="m-468.95782 236.33489 1.80563 5.61299h5.88193l-4.75351 3.40826 1.80814 5.61299-4.7403-3.44448-4.75666 3.44448 1.8212-5.61299-4.75336-3.40826h5.86872l1.82136-5.61299"/><path id="path18909" d="m-468.95782 286.92606 1.80563 5.57677h5.88193l-4.75351 3.44448 1.80814 5.57677-4.7403-3.44762-4.75666 3.44762 1.8212-5.57677-4.75336-3.44448h5.86872l1.82136-5.57677"/><path id="path18911" d="m-469.40714 336.49371 1.82136 5.57363h5.86888l-4.74361 3.44762 1.80831 5.57363-4.75336-3.47413-4.7403 3.47413 1.80547-5.57363-4.75321-3.44762h5.88178l1.80814-5.57363"/><path id="path18913" d="m-469.84355 385.46775 1.82136 5.57677h5.88178l-4.76643 3.44447 1.82924 5.57678-4.76674-3.43477-4.72692 3.43477 1.80814-5.57678-4.76972-3.44447h5.88193l1.80814-5.57677"/><path id="path18915" d="m-512.89936 236.33489 1.82136 5.61299h5.88194l-4.76658 3.40826 1.82923 5.61299-4.76642-3.44448-4.75352 3.44448 1.83443-5.61299-4.74361-3.40826h5.8555l1.8083-5.61299"/><path id="path18917" d="m-512.89936 286.92606 1.82136 5.57677h5.88194l-4.76658 3.44448 1.82923 5.57677-4.76642-3.44762-4.75352 3.44762 1.83443-5.57677-4.74361-3.44448h5.8555l1.8083-5.57677"/><path id="path18919" d="m-513.32271 336.49371 1.8083 5.57363h5.88162l-4.74014 3.44762 1.80562 5.57363-4.75352-3.47413-4.74013 3.47413 1.80814-5.57363-4.75667-3.44762h5.85896l1.82923-5.57363"/><path id="path18921" d="m-513.75881 385.46775 1.80814 5.57677h5.86887l-4.7403 3.44447 1.80815 5.57678-4.74361-3.43477-4.75351 3.43477 1.8083-5.57678-4.74046-3.44447h5.86888l1.81868-5.57677"/><path id="path18923" d="m-556.82454 234.60623 1.81853 5.57336h5.86872l-4.74014 3.44789 1.82136 5.57335-4.76642-3.44447-4.7436 3.44447 1.82136-5.57335-4.7532-3.44789h5.86856l1.80814-5.57336"/><path id="path18925" d="m-556.82454 285.15802 1.81853 5.57337h5.86872l-4.74014 3.47412 1.82136 5.54713-4.76642-3.40826-4.7436 3.40826 1.82136-5.54713-4.7532-3.47412h5.86856l1.80814-5.57337"/><path id="path18927" d="m-557.24789 334.72569 1.78973 5.57336h5.88209l-4.75352 3.44788 1.82121 5.57336-4.7403-3.44762-4.76988 3.44762 1.82136-5.57336-4.74045-3.44788h5.86887l1.82136-5.57336"/><path id="path18929" d="m-557.69721 383.7257 1.82136 5.58674h5.86872l-4.74345 3.40826 1.80814 5.61299-4.7532-3.44789-4.74045 3.44789 1.80562-5.61299-4.7532-3.40826h5.86856l1.82136-5.58674"/><path id="path18933" d="m-600.72705 284.65939 1.80295 5.57337h5.87202l-4.75667 3.48725 1.80815 5.57336-4.72724-3.47387-4.76642 3.47387 1.82923-5.57336-4.75351-3.48725h5.86887l1.82136-5.57337"/><path id="path18935" d="m-601.16315 334.22364 1.79508 5.58676h5.88193l-4.75351 3.47385 1.81868 5.57363-4.74014-3.47071-4.75351 3.47071 1.80562-5.57363-4.74014-3.47385h5.8555l1.83442-5.58676"/><path id="path18937" d="m-601.61279 383.20082 1.82137 5.58676h5.86855l-4.7532 3.47385 1.80295 5.57363-4.74045-3.47413-4.74014 3.47413 1.8083-5.57363-4.75667-3.47385h5.86887l1.82121-5.58676"/><path id="path18943" d="m-645.11807 333.37728 1.8212 5.57678h5.86856l-4.7532 3.44447 1.82136 5.57677-4.75666-3.44762-4.74014 3.44762 1.80814-5.57677-4.7532-3.44447h5.88178l1.80546-5.57678"/><path id="path18945" d="m-645.53812 382.35446 1.79256 5.57363h5.88194l-4.75352 3.44762 1.82136 5.57363-4.74045-3.44448-4.76973 3.44448 1.82121-5.57363-4.7403-3.44762h5.86887l1.82136-5.57363"/><path id="path18947" d="m-447.43149 211.87268 1.79508 5.57678h5.88178l-4.74014 3.44447 1.80295 5.57677-4.74045-3.44789-4.75321 3.44789 1.80815-5.57677-4.74345-3.44447h5.86887l1.82121-5.57678"/><path id="path18949" d="m-447.43149 260.84986 1.79508 5.57336h5.88178l-4.74014 3.44789 1.80295 5.57336-4.74045-3.40826-4.75321 3.40826 1.80815-5.57336-4.74345-3.44789h5.86887l1.82121-5.57336"/><path id="path18951" d="m-447.43149 309.85328 1.79508 5.58648h5.88178l-4.74014 3.43477 1.80295 5.58648-4.74045-3.44762-4.75321 3.44762 1.80815-5.58648-4.74345-3.43477h5.86887l1.82121-5.58648"/><path id="path18953" d="m-447.43149 359.9424 1.79508 5.613h5.88178l-4.74014 3.44762 1.80295 5.61299-4.74045-3.48725-4.75321 3.48725 1.80815-5.61299-4.74345-3.44762h5.86887l1.82121-5.613"/><path id="path18955" d="m-447.43149 407.80424 1.79508 5.58673h5.88178l-4.74014 3.47388 1.80295 5.57362-4.74045-3.47414-4.75321 3.47414 1.80815-5.57362-4.74345-3.47388h5.86887l1.82121-5.58673"/><path id="path3711" d="m-468.95782 189.61129 1.80563 5.58673h5.88193l-4.74045 3.47388 1.8083 5.57362-4.75352-3.47414-4.7436 3.47414 1.80814-5.57362-4.75336-3.47388h5.85566l1.83442-5.58673"/><path id="path3713" d="m-663.54522 407.80424 1.80563 5.58673h5.88193l-4.74045 3.47388 1.8083 5.57362-4.75352-3.47414-4.7436 3.47414 1.80814-5.57362-4.75336-3.47388h5.85566l1.83442-5.58673"/><path id="path3715" d="m-659.50461 359.9424 1.80563 5.613h5.88193l-4.74045 3.44762 1.8083 5.61299-4.75352-3.48725-4.7436 3.48725 1.80814-5.61299-4.75336-3.44762h5.85566l1.83442-5.613"/><path id="path3719" d="m-512.89936 193.90848 1.82136 5.61299h5.88194l-4.76658 3.40826 1.82923 5.61299-4.76642-3.44448-4.75352 3.44448 1.83443-5.61299-4.74361-3.40826h5.8555l1.8083-5.61299"/></g></g></g></svg>