<svg width="20" height="6" viewBox="0 0 20 6" fill="none" xmlns="http://www.w3.org/2000/svg">
<path d="M3 5C4.10457 5 5 4.10457 5 3C5 1.89543 4.10457 1 3 1C1.89543 1 1 1.89543 1 3C1 4.10457 1.89543 5 3 5Z" stroke="#696981" stroke-width="1.5"/>
<path opacity="0.5" d="M10 5C11.1046 5 12 4.10457 12 3C12 1.89543 11.1046 1 10 1C8.89543 1 8 1.89543 8 3C8 4.10457 8.89543 5 10 5Z" stroke="#696981" stroke-width="1.5"/>
<path d="M17 5C18.1046 5 19 4.10457 19 3C19 1.89543 18.1046 1 17 1C15.8954 1 15 1.89543 15 3C15 4.10457 15.8954 5 17 5Z" stroke="#696981" stroke-width="1.5"/>
</svg>
